<?xml version="1.0" encoding="utf-8"?>
<!-- Generator: Adobe Illustrator 16.0.0, SVG Export Plug-In . SVG Version: 6.00 Build 0)  -->
<!DOCTYPE svg PUBLIC "-//W3C//DTD SVG 1.1//EN" "http://www.w3.org/Graphics/SVG/1.1/DTD/svg11.dtd">
<svg version="1.1" id="Layer_1" xmlns="http://www.w3.org/2000/svg" xmlns:xlink="http://www.w3.org/1999/xlink" x="0px" y="0px"
	 width="1400px" height="980px" viewBox="0 0 1400 980" enable-background="new 0 0 1400 980" xml:space="preserve">
<g>
	<g>
		<g>
			<path d="M67.4,114.1c5.8,23.8-9.3,47.7-21.5,66.9c-2.4,3.9,2,7.9,5.1,9.3c4.8,2.1,10.3,1.9,14.9-0.4c15.1-7.4,37.8-7.5,53.3-4.3
				c12.4,2.5,33,8.2,40.4-6.3c5.3-10.3-3.8-27.4-7.6-36.9c-2.7-6.9-5.7-13.7-9-20.3c-2.4-4.6-5.1-10.1-10.3-12
				c-5.3-2-12.5-2.5-16.9,1.8c-4,3.9-0.8,9.4,3.7,11.1c-4.4-1.7-3.2-2.8-1.1,0.6c1.3,2.1,2.3,4.5,3.4,6.8c2.8,5.9,5.3,12,7.7,18.1
				c2,5,3.9,10.1,5.5,15.2c0.7,2.1,1.2,4.2,1.4,6.4c0.2,2.2-1.2,3.8,1.1,3c2.7-0.9-1-0.5-1.3-0.5c-3.2-0.5-6.4-1.3-9.6-2
				c-7.3-1.5-14.5-2.1-21.9-2.3c-18.8-0.5-38.3,0.9-55.4,9.3c6.7,3,13.3,5.9,20,8.9c14.2-22.2,28.6-48.1,22-75.4
				C88.8,101.5,64.6,102.5,67.4,114.1L67.4,114.1z"/>
		</g>
		<g>
			<path d="M128.6,132.7c5.6,19.7,16.3,37.3,25.1,55.6c8.5,17.6,18.7,34.8,33.3,48c1.9-5.3,3.8-10.5,5.7-15.8
				c-24.6-7-48.5-9.2-73.8-4.1c-26.4,5.4-50.6,16.6-76,25.1c5.9,5.2,11.8,10.5,17.7,15.7c7.8-18.5,21.2-34,31.9-50.8
				c-4,0-8.1,0-12.1,0.1c1.9,1.1,3.5,1.9,4.9,3.5c3.3,3.5,11,6.1,14.7,1.9c4.1-4.6-0.3-10.9-3.6-14.4c-2.9-3.1-6.5-5.2-10.2-7.4
				c-3-1.7-9.6-3.8-12.1,0.1c-11.5,18.1-25.8,34.9-34.2,54.7c-3.9,9.2,9.9,18.3,17.7,15.7c23-7.7,44.9-17.5,68.5-23.1
				c22.5-5.4,44-4.2,66.2,2c12.1,3.4,13.1-9.1,5.7-15.8c-11.6-10.4-18.5-24.4-25.6-38c-8.5-16.2-18.1-32.7-23.2-50.4
				c-1.6-5.7-6.9-10.7-13-11.5C131.1,123.2,127,127.4,128.6,132.7L128.6,132.7z"/>
		</g>
		<g>
			<path d="M236.5,137c-12.6-11.1-31.5-17.9-48.3-15.1c-16.6,2.7-23.2,18-21.1,33.4c2.4,17.1,13.2,33.4,27.2,43.4
				c13.3,9.4,33.2,15.9,48.8,8.8c11.8-5.4,13.7-22.3,13.6-33.5c-0.1-13.5-3.9-25.5-11.1-36.8c-4-6.2-9.3-12-16.2-15
				c-7.5-3.3-18.9-6.7-26.7-2.4c-12.7,7-4.1,25.8,1.3,34.9c0.9,1.4,1.8,2.8,2.9,4.1c3.2,4,9.2,5.5,14,6.2c0.6,0.1,12.2,0.8,9.5-2.7
				c-5.5-6.9-9.9-16.3-10.3-25.1c-0.2-4,1.3-8.2,5.3-9.7c-10.1-3.6-13.2-3.9-9.4-1.1c0.9,0.8,1.7,1.6,2.6,2.5c2.3,2.4,4,5.3,5.7,8.1
				c9.2,15.2,11.8,35.4,5.6,52.2c-1.4,3.8-3.6,6.9-6.8,9.4c-1.5,1.2-3.2,1.8-5,2.3c-1.6,0.1-1.4,0.2,0.6,0.5c1.4,0.3-3-1.7-2.7-1.5
				c-10.7-6.3-18-18.3-22.4-29.5c-4.2-10.8-5-24.5,3-33.7c2.8-3.2,6.8-5.2,10.9-5.6c1.9-0.2-1.4-0.7,0.6,0.1c2.7,1.1,4.9,3,7,4.9
				c4.1,3.6,10.7,5,16,5.3C233,141.2,240.6,140.6,236.5,137L236.5,137z"/>
		</g>
		<g>
			<path d="M255.2,124.9c12.4,26.5,3.6,59.7-9,84.5c-2,4,18.3,11.5,21.7,10.5c16.8-4.9,69.6,11.3,71.5-17.1
				c0.8-12.8-7.1-26.4-12.4-37.6c-2.6-5.4-14-22.7-8.4-28.7c1.2-1.3-18.3-14.4-22.4-10c-5.3,5.6,3.9,20.5,6.4,25.7
				c5.6,11.9,13.1,24.6,14.4,38c1.4,14.9-13.9,17.9-25.5,18.1c-14.5,0.3-30.3-3.6-44.5,0.6c7.2,3.5,14.5,7,21.7,10.5
				c12.9-25.4,21.5-59.2,8.8-86.2c-1.9-4-9.2-6.5-13-7.9C263.9,125.1,253.8,121.8,255.2,124.9L255.2,124.9z"/>
		</g>
		<g>
			<path d="M261.9,95.3c-0.1,0-0.3,0-0.4,0c2.1,0.7,4.2,1.4,6.3,2.1c-3.8-3.2-5.7-10.7-6.8-15.4c-7.7,2.4-15.4,4.7-23.1,7.1
				c20.7,20.6,54.7,22.3,81.9,26.2c18.4,2.6,36.4,5.8,55,6.3c20.5,0.6,41-1.4,61.4-3.6c-1.8-3.2-3.5-6.4-5.3-9.6
				c-10.7,5.3-22.7,7.6-33.8,11.9c-11.9,4.7-22.4,11.8-30.1,22.1c-3.3,4.5,2.5,6.6,6.1,6.7c5.2,0.2,12.5-1.5,15.8-5.9
				c13-17.6,37.7-18.8,56.3-27.9c9.6-4.7,2.1-10.4-5.3-9.6c-17.5,1.9-35,3.5-52.6,3.4c-17.1-0.1-33.7-2.9-50.6-5.5
				c-24.9-3.8-57.7-4-76.7-22.9c-4.5-4.5-25.1-1.2-23.1,7.1c2,8.3,5.3,19.6,15.1,20.3c5.2,0.4,12.5-1.6,15.8-5.9
				C271.5,97.5,265.4,95.6,261.9,95.3L261.9,95.3z"/>
		</g>
		<g>
			<path d="M316.2,114.1c12.5,10.9,16.4,31.2,19.9,46.7c4.9,22.3,11,45.1,7.4,68.1c-2.1,13.1,21.7,18.9,23.8,5.9
				c4.1-25.8-1.8-50.5-7.4-75.6c-4.6-21-10.6-44.2-27.4-59C322.2,91.3,304.2,103.6,316.2,114.1L316.2,114.1z"/>
		</g>
		<g>
			<path d="M403.4,212c-3-8.4-1.1-18.8,0.5-27.4c1.4-7.6,3.9-19.6,9.2-24.5c10.3-9.5-7.5-26-16.9-17.3c-9.1,8.4-12.6,21.8-15,33.5
				c-2.5,12-4.2,26.4,0,38.2C385.4,226.7,408.6,226.6,403.4,212L403.4,212z"/>
		</g>
		<g>
			<path d="M392.6,194.9c20-11.2,44-10.3,65.2-3.3c10,3.3,25-15.1,11.9-19.4c-26.3-8.8-57.1-8-81.6,5.7c-4.6,2.6-10.2,7.7-8.6,13.7
				C381,197.2,388.4,197.2,392.6,194.9L392.6,194.9z"/>
		</g>
		<g>
			<path d="M453.5,117.3c-6.8,20.9-8.4,43-7.7,64.8c0.8,22.7,4,45.7,12.1,67c4.1,10.8,24.8-1.9,21.4-10.8
				c-7.3-19.1-10.5-39.5-11.8-59.8c-1.3-20.8-0.2-43.1,6.3-63C478.3,101.6,456.5,108.1,453.5,117.3L453.5,117.3z"/>
		</g>
	</g>
	<g>
		<path d="M53.5,238.5c1.1,25.1,4.1,50.1,5.2,75.3c0-0.5,9.3-3.3,9.2-6.2c-1.1-25.1-4.1-50.1-5.2-75.3
			C62.7,232.8,53.4,235.6,53.5,238.5L53.5,238.5z"/>
	</g>
	<g>
		<path d="M67.3,234c0.7,17.4,1.4,34.7,2,52.1c0.1,2.2,10.4,3.3,10.4,3.9c-0.7-17.4-1.4-34.7-2-52.1C77.6,235.7,67.4,234.5,67.3,234
			L67.3,234z"/>
	</g>
</g>
<g>
	<g>
		<g>
			<path d="M193.8,611.5c1.5,5.2-3.9,14.3-5.8,18.9c-3,7.2-6.5,14.3-8.5,21.9c9,4.4,18,8.8,27,13.2c0.7-15.3-6-29.9-13.7-42.7
				c-9.6-15.9-24.3-27.8-41.9-33.8c-11.1-3.8-24.3-4.6-30.4,7.2c-5.1,9.8-3.7,23.4-1.8,33.8c5,27.2,28.9,46.3,47.2,64.9
				c9.4,9.6,18.3,20.1,23.2,32.7c5.9,15,4.2,32-2.7,46.4c-3.3,6.9-8.1,13.1-13.4,18.5c-2.5,2.5-5,5-8,7c-1,0.6-2.1,1.2-3.2,1.6
				c-7.6,3.2,16.5,11.4,12.2,6.3c-6.8-8.2-10.4-21.6-14.1-31.4c-7.6-20-18.7-49.6-6.7-69.9c-7.3-2.2-14.6-4.4-21.9-6.6
				c12.5,8.2,18.5,27.9,23.4,41.2c2,5.3,10.5,8.9,15.3,10.7c0.9,0.4,13.4,4.6,11.7-0.1c-7.1-19.2-15.9-40.1-33.6-51.8
				c-2.8-1.9-18.8-11.9-21.9-6.6c-7.5,12.7-5.3,29.3-2.3,43c3.4,15.8,9.3,31.1,15.7,45.9c2.9,6.7,5.6,13.7,10.3,19.4
				c6.6,8,18.1,13.7,28.2,15.3c8.4,1.3,14.4-3.4,20.1-9.1c7.9-7.9,14.2-16.5,18.1-27c10.9-29.6-4.6-56.3-24.6-77.2
				c-18.2-19-41.3-36.5-46.3-63.8c-2.1-11.3-3.5-38.3,14-37.7c2.7,0.1-3.3-1.1-4.9-2.3c1.9,1.3,3.5,3.1,5,4.8
				c4,4.5,7.4,9.6,10.3,14.9c5.4,9.8,10.3,21.9,9.8,33.3c-0.3,7.1,25.7,18,27,13.2c2.1-8.1,6-15.8,9.2-23.5
				c2.2-5.3,6.9-13.7,5.1-19.7c-1.5-5.3-10.9-9-15.3-10.8C204.4,611,192.4,606.7,193.8,611.5L193.8,611.5z"/>
		</g>
		<g>
			<path d="M194.1,680.3c0.2,0.3,0.4,0.7,0.6,1c0.4,2.1,0.8,4.3,1.2,6.4c0,0,0.1-0.1,0.1-0.1c-1.4-0.2-2.8-0.4-4.3-0.6
				c-2.5-1.3,2.4,2,3.3,2.7c2.5,2,5.5,3.4,8.3,4.9c8.9,4.5,18.4,7.4,28,9.8c20.5,5.2,41.5,9.6,62.8,7.4c-4.3-5.9-8.6-11.7-12.9-17.6
				c-13.7,2.6-25.3,9.1-34.1,19.9c-4,4.9,11.9,20.6,15,16.8c8.3-10.2,19-16.7,32-19.1c5.6-1-7.1-18.2-12.9-17.6
				c-20.5,2.1-40.1-2.2-59.9-7c-9.3-2.3-18.3-5.1-26.8-9.5c-1.3-0.6-7.7-4.9-1.3-0.5c-0.9-0.6-1.7-1.3-2.5-2
				c-1.7-1.4-3.5-2.9-5.5-3.9c-0.9-0.5-3.2-1.7-4.3-0.6c0,0-0.1,0.1-0.1,0.1c-1.6,1.6,0.3,5,1.2,6.4c0.7,1.2,1.5,2.4,2.4,3.5
				c2.4,3,6.8,8.8,11.3,8.5C200,689.2,195,681.4,194.1,680.3L194.1,680.3z"/>
		</g>
		<g>
			<path d="M212.8,698.9c3.3,37.6,6.6,75.4,13.5,112.6c1,5.5,22.4,5.2,22.2,4c-6.9-37.2-10.2-74.9-13.5-112.6
				C234.5,697.8,212.6,697,212.8,698.9L212.8,698.9z"/>
		</g>
		<g>
			<path d="M244.7,733.7c-0.8,10.7,1.6,21.7,3.9,32c2.8,12.3,6.5,24.5,11.1,36.3c1.8,4.8,5.4,9.6,9.2,13c3.1,2.7,4.5,1.5,3.1-2.2
				c-3.8-10-6.8-20.3-9.4-30.7c-2.5-10.2-5-21-4.2-31.6c0.3-4.2-4.1-9.4-6.5-12.4C251.7,737.8,245,730.5,244.7,733.7L244.7,733.7z"
				/>
		</g>
		<g>
			<path d="M244.2,734.7c11.3,23.1,34.8,34.8,53.3,51.2c-0.2-5.3-0.4-10.5-0.6-15.8c-17.9-0.8-36-0.1-53.7,2.3
				c-9.1,1.2,2.5,20.2,10.9,19.1c16.5-2.3,33.2-2.9,49.9-2.2c9.7,0.4,3-12.6-0.6-15.8c-15-13.3-36.7-23.3-45.8-41.9
				c-1.9-3.9-7.3-9.1-12.1-8C240.2,724.8,242.7,731.7,244.2,734.7L244.2,734.7z"/>
		</g>
		<g>
			<path d="M267.7,775.1c3.2,7.4,3.5,16.1,5.2,23.9c2.3,10.7,6.6,21.2,10.9,31.2c8.9,20.7,22,41.1,42.1,52.4
				c6,3.3,13.2,7.9,19.6,3.3c6.9-5,9-17.6,11-25.2c6-22.8-3.1-44.1-12.9-64.3c-1.7-3.6-7.9-6.5-11.1-8.3c-0.5-0.3-8.6-4.3-7.7-2.5
				c8.2,16.9,15.8,33.9,14.4,53.1c-0.7,8.7-3.4,17.5-6.6,25.6c-1.2,3.2-2.9,6.1-5.1,8.7c-0.9,1-2,1.7-3.2,2.3
				c-4.1,2.1-4.3-2.9,1.4,2.7c-13.1-13-21.3-31.7-27.7-48.7c-2.8-7.5-5.4-15.3-6.9-23.2c-1.3-6.6-1.7-14-4.4-20.3
				c-1.5-3.5-8-6.6-11.1-8.3C275,777.2,266.9,773.2,267.7,775.1L267.7,775.1z"/>
		</g>
		<g>
			<path d="M315.1,772.2c21.6-6.7,25.5-30.1,22.2-49.7c-1.3-7.8-3.9-16.5-10.3-21.7c-8.3-6.8-20.7,2.5-26.1,8.6
				c-14.1,15.7-9.3,42.1-2.9,60c3.4,9.6,9.1,19,17.8,24.7c9.2,6.1,21.3,3.9,30.4-1c3.8-2.1,9.8-6,9.2-11.2c-0.6-5-7.9-3.5-10.7-2
				c-12.2,6.7-21.8-8.9-26.2-18.8c-5.9-13.2-8.9-30.5-4.7-44.6c0.3-1,0.7-1.8,1.2-2.8c-0.4,0.8,2.5-2.9,0.8-1.2
				c-1.5,1.5-4.2,2.5-6.2,2.3c0.8,0.1-0.1-0.2,1.2,0.7c3.3,2.3,5.3,9.5,6.2,13.8c1.4,6.3,2,13,1.3,19.4c-0.3,2.6-0.7,5.6-1.6,7.9
				c-0.1,0.4-1.9,3.5-1,2.2c-1,1.5,1.8-1.3,3.1-1.7c-4.7,1.5-10.4,5.2-11.6,10.3C305.9,772.5,311.5,773.4,315.1,772.2L315.1,772.2z"
				/>
		</g>
		<g>
			<path d="M373.3,765.7c6.1-6.5,8.2-17,9.5-25.5c1.7-10.7,0.8-22.5-6.3-31.1c-7.1-8.6-20.2-13.3-30.7-8.5
				c-8.3,3.8-8.6,16.5-8.3,24.1c0.7,18.5,6,38.3,12.7,55.5c4.1,10.6,9.3,21.5,18,29.1c9.9,8.6,22.9,10,29.9-2.2
				c4.1-7.2-15.5-18.2-19.6-11c-1,1.7-1.9,3.4-3.5,4.7c-2.9,2.4,2.5,0.4,4.9,2.3c-0.9-0.7-3.4-5-4.5-7c-2.9-5.1-5.2-10.8-7-16.4
				c-4.4-13.9-8.5-28.1-10-42.6c-0.7-6.3-1.2-13.6,1.6-19.5c0.9-1.9,2.2-3.1,4.2-3.6c-2.1,0.5-4.3-4.6-2.6,0
				c4.3,11.6,0.5,31.9-8,41.1C348.6,760.1,367.3,772.1,373.3,765.7L373.3,765.7z"/>
		</g>
		<g>
			<path d="M307.7,672.2c-5.1-11.6-14.3-21.5-21.7-31.6c-2.5-3.4-6.8-6.7-11.3-6.6c-3.8,0.1-5.4,3.6-4.3,7
				c5.4,15.4,20,24.3,34.4,30.3c15.5,6.5,32.1,10.4,48.6,13.3c17.1,3,34.7,4,52,4.4c10.6,0.2,21.3-0.2,31.8-1.8
				c4.9-0.7,9.7-1.8,14.5-3.1c2.6-0.7,5.2-1.7,7.7-2.7c1-0.4,3.4-2.2,4.1-2.2c-3.8-6-7.5-12-11.3-17.9
				c-14.7,5.2-26.8,15.2-33.2,29.5c-3.5,7.8,14,21.7,18.1,12.5c5.4-12.1,16.1-20.1,28.3-24.5c9.8-3.5-5.3-17.9-11.3-17.9
				c-2.9,0-5.4,1.7-8,2.9c-3.8,1.6-7.8,2.8-11.7,3.8c-9.5,2.4-19.4,2.9-29.2,3.1c-16.5,0.4-34.4-0.5-50.1-2.8
				c-13.4-1.9-26.8-4.9-39.8-8.8c-6.8-2.1-13.5-4.7-19.8-8c-1.4-0.8-4.4-2.7-4.9-3.1c-1.9-1.6-2.1-2-2.4-2.6
				c-5.2,0.1-10.4,0.2-15.5,0.3c6.4,8.7,14.4,17,18.8,26.9C295.4,681.2,313.6,685.7,307.7,672.2L307.7,672.2z"/>
		</g>
		<g>
			<path d="M388.9,680.3c-3.8,48.2-7.5,97.7,14.4,142.5c1.7,3.6,8.2,6.3,11.4,7.9c0.4,0.2,8.9,3.9,8,1.9
				c-21.7-44.4-17.9-93.5-14.1-141.2C408.9,686.2,388.9,680.7,388.9,680.3L388.9,680.3z"/>
		</g>
		<g>
			<path d="M445.1,773.5c12.3-18.7,25-37.1,34.2-57.5c4.3-9.5,7.8-19.3,12.1-28.7c4.5-9.9,8.5-19.9,9.2-30.9
				c-6.9-2.9-13.9-5.8-20.8-8.7c0.3,36,12.9,68.9,26.8,101.6c7.4,17.3,15.7,34.2,24.4,50.9c4,7.7,8.4,15.3,12,23.2
				c3,6.7,6.1,13.2,11.1,18.6c2.9,3.1,7.1,5.1,11.1,6.4c0.6,0.2,10.8,2.5,8.9-0.9c-17-30.5-40.1-56.6-69.9-75.1
				c-30.6-19-66.4-29.1-102.3-30.4c-4-0.2-5.2,1.8-1.9,4.6c3.8,3.2,9.7,5.9,14.7,6.1c28.5,1.1,55.9,7.7,80.1,23.1
				c24.9,15.9,44.3,39.5,58.5,65.1c6.7,1.8,13.4,3.6,20,5.4c-4.9-5.3-7.6-11.8-10.6-18.3c-3.7-8.1-8.2-15.8-12.3-23.7
				c-8.3-15.9-16.1-31.9-23.1-48.4c-13.5-31.8-26.5-64.4-26.8-99.5c-0.1-6.2-20.6-12-20.8-8.7c-0.7,10.1-4.1,19.3-8.2,28.5
				c-4.5,10.3-8.7,20.7-13.1,31c-8.9,20.5-22,38.9-34.2,57.5C422.1,768.2,441.9,778.5,445.1,773.5L445.1,773.5z"/>
		</g>
		<g>
			<path d="M521.1,707.6c-3.6,1.7,1.3,10,2.2,12.5c3.9,10.4,8.2,20.6,12.5,30.8c7.5,17.8,14.4,37.8,25.2,54c2.9,4.3,22.1-4,22.2-3.8
				c-10.3-15.3-16.7-34.2-24-51.1c-4.3-10.1-8.6-20.3-12.6-30.6c-1.1-2.7-6-11.3-4.8-14.4c-0.5,0.4-0.9,0.8-1.4,1.2c0,0,0,0,0.1,0
				c4.1-2-3.5-1.9-4.4-1.8C531.2,704.7,525.6,705.4,521.1,707.6L521.1,707.6z"/>
		</g>
		<g>
			<path d="M518.9,677.8c-6.8,3.7,4.1,18.3,6.8,21.5c6.7,8.3,14.7,15.6,22.6,22.7c9.4,8.5,19.2,16.7,29.2,24.5
				c6.9,5.3,14.4,11.6,22.6,14.8c-2.1-6.3-4.2-12.6-6.3-19c-14.2-4.2-28.3,1.6-42.6,2.9c-16.5,1.5-33.2-0.3-49.8-1
				c-6.3-0.3,2.6,19.5,9.4,19.7c15.6,0.7,31.2,2,46.8,1.2c13.6-0.7,29.1-7.8,42.4-3.9c8.8,2.6-1.1-16.9-6.3-19
				c-12.6-5-25.7-17.7-36.5-26.9c-7.1-6.1-14.1-12.5-20.8-19.1c-2.7-2.7-5.2-5.3-6.4-6.9c-0.4-0.4-0.7-0.9-1-1.3
				c-1.7-2.1,1.4,2.2,0.1,0.2c1.2,2,3.2,7.7,1.6,8.5C536.3,693.9,524.9,674.6,518.9,677.8L518.9,677.8z"/>
		</g>
		<g>
			<path d="M591.1,757.3c4.5,0-2.6-2.8-3.4-3.1c-4.7-1.6-10.1-3.2-15.1-3.2c-4.5,0,2.6,2.8,3.4,3.1
				C580.7,755.7,586.1,757.3,591.1,757.3L591.1,757.3z"/>
		</g>
		<g>
			<path d="M573.7,747.1c-4.3,16.2,2.1,32.9,9.9,46.9c8.3,14.9,19.4,28.1,31.2,40.3c24,25.1,61,49.7,97,38.2
				c16.1-5.1,29-19.6,37.3-33.7c8.3-14.2,12.5-30.3,14.5-46.5c3.8-32.1-4.1-71-25.9-95.9c-12.1-13.8-30-22.2-48.3-17.2
				c-17.9,4.9-30.7,19-33.1,37.4c-2.3,18.2,3.7,37,13.4,52.3c10.9,17.2,27.6,27.7,47.9,29.4c8.8,0.7,1-20-7.3-20.7
				c-17.8-1.5-30.4-11.6-36.4-28.1c-5.3-14.5-3.5-31.4,8.9-41.6c13.3-11,32.4-13.1,45.9-1.3c11,9.7,15.9,26.8,18.5,40.7
				c5.9,31.6-1.4,67-23.8,90.8c-30.4,32.4-72.7,11.1-99.6-14.1c-9.4-8.8-17.8-19-25.1-29.6c-6.4-9.3-13.4-21.4-10.2-33.1
				c1.4-5.1-1.6-11.2-5.3-14.7C580.5,744,575.1,742,573.7,747.1L573.7,747.1z"/>
		</g>
		<g>
			<path d="M616.4,678.6c0-1.8,0-3.5,0-5.3c0-6.3-21.6-5.5-22.5,1.1c-3.2,22.3,3,44.1,6.6,66.1c3,18.9,6.1,38.6,15.2,55.7
				c3.9,7.3,10.4,13.7,18.6,15.6c8.2,1.8,20.8,1.3,25.7-6.8c3.5-5.8,2.8-14.5,2.5-20.9c-0.3-6.4-1.2-12.9-2.5-19.2
				c-1.5-6.9-23.7-4.5-22.5,1.1c2.2,10.1,3.3,20.7,2.4,31c-0.2,2.3-0.7,4.5-1.7,6.6c-0.2,0.3-0.4,0.6-0.6,0.9
				c8.6,0.6,10.8-0.4,6.4-2.9c-1.4-1.3-2.7-2.8-3.9-4.3c-4.7-5.8-7.2-13.5-9.4-20.5c-4.9-15.6-6.9-32.1-9.6-48.3
				c-3-18.6-7.5-36.3-4.8-55.2c-7.5,0.4-15,0.8-22.5,1.1c0,1.8,0,3.5,0,5.3C593.9,685.9,616.4,685.2,616.4,678.6L616.4,678.6z"/>
		</g>
		<g>
			<path d="M593.2,709.9c-7.8-2.9-15.7-4.1-23.4-0.4c-4.2,2-4.7,5.5-0.8,8.2c23.5,16.2,55.8,9.4,82.1,6.3c2.9-0.3,10.5-1.6,8.5-6.4
				c-1.8-4.4-9.3-5.8-13.4-5.3c-10.4,1.2-20.7,2.8-31.1,3.5c-9.8,0.7-21,1.1-29.4-4.8c-0.3,2.7-0.5,5.5-0.8,8.2
				c-1.3-0.1-2.6-0.2-3.9-0.4c4.6,1.7,11.3,2.5,15.5-0.7C600.7,715.2,596.6,711.2,593.2,709.9L593.2,709.9z"/>
		</g>
		<g>
			<path d="M755.4,678.7c-2.4-2.7-4.4-5.1-7.5-7c-3.7-2.4-9.3-3.3-13.5-2c-4.4,1.3-5.5,5.5-1.9,8.5c10.7,9,20,17.9,23.8,31.7
				c2.2,7.9,24.3,10.3,21.9,1.5c-4.5-16.4-15.6-27.7-28.3-38.3c-5.1,2.2-10.3,4.4-15.4,6.5c-1.1-0.7-0.9-0.4,0.5,1
				c3.6,4.1,9.1,6,14.6,5.5C752.8,685.8,759.1,682.8,755.4,678.7L755.4,678.7z"/>
		</g>
		<g>
			<path d="M769,679.1c-1-0.2-2-0.5-3-0.4c-2.8,0.3,2.2,5.1,2.6,5.4c4.9,4.6,7.8,14.2,9.9,20.5c2.6,7.9,3.4,16.3,3.4,24.7
				c0,3.5,8,7.9,10.4,9.3c1,0.6,8.4,5,8.3,1.7c-0.2-18.9-5.8-40.3-20.1-53.6c0.9,1.8,1.7,3.6,2.6,5.4c0.1,0.1,0.3,0.1,0.4,0.2
				c4.7,1.1-0.4-4.4-1.3-5.3C778.6,683.6,773.9,680.2,769,679.1L769,679.1z"/>
		</g>
		<g>
			<path d="M90.6,703.7c-3.7,20.7,5.9,41.1,13.3,60c2,5.1,23.2,5.9,21.7,2c-7.2-18.4-16.4-37.9-12.8-58.1
				C113.7,702.9,91.5,699,90.6,703.7L90.6,703.7z"/>
		</g>
		<g>
			<path d="M63.2,704.6c-5,10.4,0.4,21.5,3.9,31.5c1.6,4.7,7.1,7.3,11.6,8.4c1.7,0.4,11.2,1.5,9.6-3.1c-3.1-9-8.6-19.3-4.1-28.6
				C87.2,706.4,66.5,697.7,63.2,704.6L63.2,704.6z"/>
		</g>
	</g>
	<g>
		<path d="M749.9,782c0,51,0,101.9,0,152.9c0,4.6,8.1,3.3,8.1-0.9c0-51,0-101.9,0-152.9C758,776.5,749.9,777.8,749.9,782L749.9,782z
			"/>
	</g>
	<g>
		<path d="M728.4,847.4c0,16.4,0,32.9,0,49.3c0,1.9,8.2,1.9,8.2-0.1c0-16.4,0-32.9,0-49.3C736.7,845.4,728.4,845.4,728.4,847.4
			L728.4,847.4z"/>
	</g>
	<g>
		<path d="M209.6,766.4c0,37.8,0,75.6,0,113.4c0,2.4,6.9,6,6.9,4c0-37.8,0-75.6,0-113.4C216.4,768.1,209.6,764.4,209.6,766.4
			L209.6,766.4z"/>
	</g>
	<g>
		<path d="M197.5,790.6c0,17,0,34,0,51c0,3.1,8.1,4.3,8.1,1.6c0-17,0-34,0-51C205.5,789.1,197.5,787.9,197.5,790.6L197.5,790.6z"/>
	</g>
</g>
<g>
	<g>
		<path d="M564.1,195.4c12.6-9.7,14.9-27,15.5-41.9c0.6-16.1-1.8-32.1-1.2-48.1c-6.7-4.5-13.4-9-20.1-13.4
			c7.9,30,19.9,59.6,37.6,85.2c1.5,2.2,17.3,16.3,18.5,10.2c6.1-31,19-60.2,33.8-88c-6.6-4.8-13.2-9.6-19.9-14.5
			c-2.1,28.2-1,55.5,3,83.4c3,20.8,4.4,42.5,20.3,57.9c2.9,2.8,9.1,8.2,13.6,7.6c4.1-0.5-3.6-8.2-4.2-8.8c1.9,1.8,0.4,0.2-0.2-0.9
			c-1-1.7-1.7-3.6-2.4-5.4c-1.7-4.4-2.7-9.1-3.6-13.7c-1.7-8.8-2.6-17.8-4-26.6c-4.2-26.6-4.5-53.2-2.5-80.1
			c0.3-4.5-17.7-18.4-19.9-14.5c-15.2,28.5-27.9,58.2-34.2,90c6.2,3.4,12.3,6.8,18.5,10.2c-16.2-23.6-27.2-51.2-34.4-78.8
			c-1.3-4.9-6.6-8.8-10.6-11.4c-1.1-0.7-9.4-6.1-9.5-2c-0.5,15.6,1.6,31.2,1.3,46.9c-0.3,14.7-2.6,31.5-15,41.1
			C541.7,182,559,199.3,564.1,195.4L564.1,195.4z"/>
	</g>
	<g>
		<path d="M653.4,135.9c-5.4,17.1-5.2,36.4-1.2,53.8c4.1,18,15.5,42.7,36.5,44.5c11.6,1,21.8-5.5,27.4-15.3c4.4-7.7,5.6-16.6,6-25.3
			c0.9-17,0.4-37.7-8.9-52.6c-5.8-9.4-29.7-2.5-23.2,8.1c6.9,11.1,7.5,26.6,7.6,39.4c0.1,6.4-0.5,12.7-1.9,18.9
			c-0.8,3.5-2.3,6.6-4.5,9.5c-1,1.4,0.1,0.2-1.4,1c1.3-0.8,2.6-1.1,4.1-1c0.9,0,2.1,0.7-0.1-0.5c-5-2.7-8.9-10.2-11.4-15
			c-3.4-6.6-5.3-13.7-6.6-21c-2.7-14.4-2.3-29.6,2.1-43.7c1.8-5.9-5.8-9-10.2-9.2C662,127.4,655.2,130,653.4,135.9L653.4,135.9z"/>
	</g>
	<g>
		<path d="M750.8,79.5c-8.3,14.1-11,31.6-11.9,47.7c-0.4,7.9,21.7-1.6,22.8-8.4c1.3-8.1-1.5-16.9-4.4-24.3
			c-3.4-8.6-8.6-16.9-15.8-22.7c-8.9-7.2-20.2-4.3-29.6,0.2c-10,4.7-17.7,13.1-20.1,23.9c-1.9,8.4,0.2,17.8,3.4,25.6
			c3.5,8.7,9.6,14.7,17.1,20.2c10.1,7.3,21.3,12.9,31.2,20.5c10.8,8.3,17.8,20.2,22.4,32.9c6.5,18.1,3,36.7-3.2,54.3
			c-2.4,6.7-5.5,14.3-10.8,19.4c0.1-0.1-3.3,2.5-1.8,1.6c-1.5,0.9-1.3,0.9-3.2,1.3c-2.6,0.6-5.6-0.9-7.8-2.4
			c-6.5-4.4-7.8-14.9-8.3-22c-0.6-9.2,0.4-18.5,0.8-27.7c0.4-8-0.3-16-0.2-24c0-7,0.1-16.2,4.6-22c-6.6,2.5-13.1,4.9-19.7,7.4
			c6.4,3.7,8.5,12.5,10.1,19.2c1.9,7.4,2.7,15.1,4.9,22.5c1.9,6.2,24.6-3.5,22.3-11.3c-4.1-13.6-3-35.6-17-43.7
			c-5.6-3.2-16.4,3.1-19.7,7.4c-7.4,9.7-8.3,21.5-8.2,33.3c0.1,11.7-0.1,23.2-0.6,34.9c-0.5,11.7-0.7,26,6.9,35.7
			c8.2,10.4,23.5,8,34.1,3.4c13.6-6,24.4-15.4,31.2-28.7c5.8-11.3,9.7-24.7,11.4-37.2c3.5-26.6-9.2-53.5-30.4-69.4
			c-7.2-5.4-15.1-9.7-22.6-14.5c-6-3.8-12.3-7.8-16.5-13.6c-6.4-8.8-10.9-22.7-7.2-33.5c0.4-1.2,1-2.3,1.6-3.4
			c0.2-0.3,2.1-2.4,1.1-1.4c-1.1,0.8-1.1,0.8,0,0c-0.7,0.5-1.4,0.8-2.1,1.1c2-0.7,1.4-0.6-1.7,0.3c2.3-0.3-1.2-0.3,1.1,0
			c5,0.6,9.4,5.8,12.3,9.7c6.9,9.3,13.6,23.7,11.7,35.6c7.6-2.8,15.2-5.6,22.8-8.4c0.8-15,3.1-31.2,10.8-44.3c2.9-5-4.4-5-7.2-4.3
			C759.8,71.4,753.7,74.6,750.8,79.5L750.8,79.5z"/>
	</g>
	<g>
		<path d="M797.7,143c8.1-5.5,12.7-14.4,18.6-21.9c1.3-1.6-11.2-4.8-11.8-4.9c-2.7-0.5-10.6-2.6-12.8,0.1
			c-5.5,7.1-9.8,15.6-17.4,20.8c-2.7,1.8,7.3,4.6,8,4.8c3.1,0.8,6.3,1.4,9.5,1.6C793.2,143.5,796.3,143.9,797.7,143L797.7,143z"/>
	</g>
	<g>
		<path d="M795,111.5c-8.6,19.7-5.2,42.9-5.5,63.9c-0.2,18.7-0.4,40.1,11.5,55.8c3.4,4.5,9.8,7.1,15.3,7.9c2.7,0.4,10.2-0.2,6.7-4.8
			c-11-14.5-10.2-35.3-10-52.6c0.2-20.1-2.9-42.1,5.3-61.1C821.1,114.1,797.9,104.7,795,111.5L795,111.5z"/>
	</g>
	<g>
		<path d="M789.9,90.7c0.2,2.9,0.2,5,2.5,7.2c3.1,3.1,7,4.2,11.3,4.5c4.7,0.3,9.7-1,13.9-3.1c3.6-1.8,7.1-4.5,9-8.2
			c1.5-2.9,1.4-6.3-0.8-8.9c-2.5-2.8-6.5-3.8-10-4c-0.1,0-0.1,0-0.2,0c1.4,0.2,2.7,0.4,4.1,0.6c-0.1,0-0.3-0.1-0.4-0.1
			c1.1,0.4,2.3,0.9,3.4,1.3c-0.2-0.1-0.4-0.2-0.5-0.3c0.9,0.7,1.7,1.4,2.6,2c-0.2-0.2-0.4-0.4-0.6-0.6c0.5,0.9,1,1.8,1.5,2.7
			c-0.1-0.2-0.2-0.5-0.3-0.7c0.1,1,0.2,2,0.3,3.1c0-0.1,0-0.1,0-0.2c-0.1-1-0.2-2-0.3-3.1c-0.7-2.1-2.1-3.7-4.1-4.7
			c-3.6-2-8-2.3-12-1.7c-4.7,0.6-9.4,2.4-13.2,5.2c-1,0.9-2,1.9-3,2.8C791.3,86.3,790.3,88.3,789.9,90.7L789.9,90.7z"/>
	</g>
	<g>
		<path d="M867,102.8c-8.3,14.8-10.8,32.2-14.5,48.5c8.3,0.3,16.7,0.5,25,0.8c0-9.6,0.6-19.1-2.5-28.4c-3.5-10.7-15-16.3-25.7-16.3
			c-9.6,0-17.7,4.1-22.3,12.7c-3.6,6.8-4.9,15.1-5.8,22.7c-1.3,11.5-0.9,23,0.5,34.5c2,15.8,5.2,32.2,12,46.7
			c4.6,9.8,11.6,18.7,22.1,22.3c12.9,4.5,29.7,1.3,38.6-9.5c8.7-10.6,11.1-25.1,12.1-38.5c0.9-12.2,0.4-24.8-1.7-36.9
			c-1-5.5-7.4-7.2-12.3-7.4c-3.1-0.1-13.7,1.2-12.7,6.6c3,17.3,3.2,36-0.5,53.2c-1.6,7.6-4.8,15.2-10.7,19.6c1.5-1.1-0.8,0.3-1,0.4
			c-2.6,1.3,2-0.6-0.7,0.3c-0.7,0.2-3.4,0.7-0.1,0.1c-0.9,0.2-3.5,0.1,0.4,0.1c-2.6,0,3.1,0.5,0.5,0.1c-2.5-0.4,2.7,0.9,0.3,0.1
			c-2.3-0.8,2.1,1.2,0,0c-0.4-0.2-2.9-2-1-0.5c-10.6-8.4-14.9-26.2-17.8-39.8c-2.5-11.3-4-23.1-4-34.7c-0.1-12.4,0.2-27.8,7.6-38.1
			c-1.1,1.5,3.2-2.2,0.6-0.6c1.9-1.2-2.4,0.7-0.2,0.1c-1.9,0.6-3.7,0.5-5.7,0.3c2.6,0.3-2.6-0.9,0.1,0.1c-2.2-0.8,0.8,0.8-0.1,0
			c1.4,1.2,2.1,2.7,2.8,4.4c3.4,7.8,2.1,17.4,2.1,25.7c0,10,22.9,10,25,0.8c3.4-15.1,5.8-31.1,13.5-44.8
			C896,98.3,871.5,94.7,867,102.8L867,102.8z"/>
	</g>
	<g>
		<path d="M784.6,218.3c0,29.3,0,58.7,0,88c0,2.3,4.7,3.9,4.7,1.4c0-29.3,0-58.7,0-88C789.3,217.3,784.6,215.7,784.6,218.3
			L784.6,218.3z"/>
	</g>
	<g>
		<path d="M777.2,244c0,13.8,0,27.6,0,41.3c0,2.9,4.9,2,4.9-0.6c0-13.8,0-27.6,0-41.3C782.1,240.5,777.2,241.3,777.2,244L777.2,244z
			"/>
	</g>
	<g>
		<path d="M788.8,319.3c0-1.3,0.1-2.6-1.1-3.4c-1-0.7-2.1-0.6-3.2,0c-0.6,0.3-0.9,1.1-1.2,1.6c-0.6,1.2,0.3,2.5,1.4,2.9
			c1.2,0.5,2.6,0,3.2-1.2c0.1-0.1,0.4-0.7,0,0c0.2-0.3-0.5,0.3-0.3,0.2c-0.4,0.1-0.8,0.3-1.2,0.4c0,0,0,0,0,0
			c-0.4-0.1-0.9-0.1-1.3-0.2c0,0,0,0,0,0c-0.3-0.2-0.7-0.5-1-0.7c-0.4-1-0.5-1.3-0.4-0.9c0,0.1,0,0.2,0,0.3c-0.1-0.8,0,0.1,0,0.3
			c0,1.3,0.9,2.3,2.2,2.5C787.2,321.3,788.8,320.6,788.8,319.3L788.8,319.3z"/>
	</g>
	<g>
		<path d="M837.9,204.6c0,25.7,0,51.3,0,77c0,3.1,4.9,2.9,4.9,0.1c0-25.7,0-51.3,0-77C842.7,201.6,837.9,201.8,837.9,204.6
			L837.9,204.6z"/>
	</g>
	<g>
		<path d="M849.9,230.9c2.7,2.7,5.3,5.3,8,8c0.8,0.8,2.4,1.1,3.3,0.3c1-0.9,0.3-2.1-0.5-2.8c-2.7-2.7-5.3-5.3-8-8
			c-0.8-0.8-2.4-1.1-3.3-0.3C848.4,228.9,849.2,230.2,849.9,230.9L849.9,230.9z"/>
	</g>
	<g>
		<path d="M892.3,161.7c0,42.3,0,84.7,0,127c0,4.8,12.1,12.9,12.1,6c0-42.3,0-84.7,0-127C904.4,162.9,892.3,154.7,892.3,161.7
			L892.3,161.7z"/>
	</g>
	<g>
		<path d="M893.8,311.5c0.3,0,0.7,0,1,0c3.4,0,7.6-2.5,7.9-6.2c0.1-1.6-0.6-3.1-1.8-4.1c-1.5-1.1-3.2-1.4-5-1.4c-0.3,0-0.7,0-1,0
			c-3.4,0-7.6,2.5-7.9,6.2c-0.1,1.6,0.6,3.1,1.8,4.1C890.2,311.2,892,311.5,893.8,311.5L893.8,311.5z"/>
	</g>
</g>
<g>
	<g>
		<g>
			<path d="M992.9,108.8c5.1,15.5,8.1,32.6,9.4,48.2c1.3,16.1,0.1,32.9,6.3,48.2c3,7.6,9.9,12.8,18.5,10.5
				c7.2-2,13.5-10.8,10.5-18.5c-1.4-3.4-2.4-6.9-3.1-10.6c-0.7-3.3-0.7-4.5-1-9c-0.5-7.4-0.6-14.8-1.2-22.1
				c-1.5-18.3-4.7-37.3-10.4-54.8c-2.5-7.8-10.3-12.7-18.5-10.5C995.8,92.4,990.3,101,992.9,108.8L992.9,108.8z"/>
		</g>
	</g>
	<path d="M1251.4,209.4c3.4-17.5,2.9-35,1.3-52.7c-1.6-17-3.8-34-3.2-51.2c0.2-6.1-5.3-11.2-11.2-11.2c-4.7,0-8.5,1.5-11.2,5.6
		c-1.7,2.6-3.4,5.2-5,7.9c-3.1,5.1-5.9,10.5-8.5,15.9c-2,4.2-3.9,8.5-5.7,12.9c-0.7-1-1.4-2-2-3c-2.6-4-5.1-8.1-7.3-12.3
		c-0.3-0.6-0.6-1.1-0.8-1.7c0.4,0.8-0.6-1.7-0.8-2.1c-0.2-0.7-0.4-1.5-0.6-2.3c0,0,0,0,0,0c0-0.1,0-0.3,0-0.5
		c-0.2-6.1-4.9-11.1-11.1-11.2c-1.2-0.5-2.6-0.8-3.9-0.8c-6.5,0-10.7,5.1-11.2,11.2c-0.3,3.8-0.7,7.5-1.2,11.2
		c-0.1,0.9-0.2,1.8-0.4,2.7c-1.4-2.1-3-4.1-4.6-6c-4.4-5.1-10.2-9-16.6-11.1c-5.8-1.9-11.8-1.4-17.4,0.4c-0.8-0.2-1.6-0.3-2.4-0.3
		c-21.6-0.8-27.1,24.3-27.2,42.2c-6.1-2.8-12.5-4.1-19.1-4.2c6.2-15.5,5.6-33.1-5.4-47.3c-8.7-11.2-22.9-18.2-36.4-21.8
		c-14-3.8-30.5-4.2-43.3,3.4c-12.4,7.4-1.1,26.8,11.3,19.4c0.5-0.3,1-0.6,1.5-0.9c-0.2,0.2,2.1-0.8,2.7-1c1-0.3,2.1-0.5,3.1-0.7
		c0.1,0,0.1,0,0.2,0c0,0,1.4-0.2,1.8-0.2c2.6-0.2,5.2-0.1,7.9,0c0.6,0,1.2,0.1,1.8,0.2c0.1,0,0.1,0,0.2,0c0.1,0,0.3,0,0.5,0.1
		c1.5,0.2,3,0.6,4.5,0.9c2.7,0.6,5.4,1.5,8.1,2.4c0.6,0.2,1.2,0.4,1.8,0.7c0.2,0.1,0.3,0.1,0.4,0.2c0.1,0,0.2,0.1,0.4,0.2
		c1.4,0.6,2.8,1.3,4.1,2c2.4,1.3,4.7,2.7,6.8,4.3c0.1,0,0.1,0.1,0.2,0.1c0.5,0.4,1.1,0.9,1.6,1.3c1,0.9,2,1.9,2.9,2.9
		c0.2,0.2,0.9,1.1,1.2,1.5c0.6,0.8,1.1,1.6,1.5,2.5c0.1,0.1,0.1,0.3,0.2,0.4c-0.3-0.6,0.5,1.4,0.6,1.8c0.5,1.4,0.8,2.9,1,4.4
		c-0.3-1.5,0.1,2,0.1,2.4c0.1,1.6,0,3.3-0.2,4.9c0,0,0,0,0,0c-0.2,1-0.4,2-0.6,2.9c-0.4,1.6-0.9,3.2-1.4,4.8
		c-0.1,0.4-0.3,0.7-0.4,1.1c0,0.1-0.2,0.4-0.4,0.9c-0.7,1.5-1.6,3-2.4,4.4c-0.4,0.6-0.7,1.1-1.1,1.7c-0.1,0.1-0.9,1.2-1.1,1.6
		c-0.9,1.1-1.8,2.1-2.8,3.2c-0.9,1-1.9,1.8-2.9,2.7c-0.1,0.1-0.2,0.1-0.3,0.2c-4.1,1.8-8,3.9-11.8,6.1c-10.8,6.3-3.7,24.5,8.6,20.5
		c5-1.6,9.7-4,14-7c0.5-0.2,1.2-0.5,1.5-0.6c0.7-0.3,1.5-0.6,2.2-0.8c2.2-0.8,4.5-1.5,6.9-2.1c1.7-0.4,3.4-0.8,5.1-1.1
		c-0.7,0.1,1.5-0.2,1.8-0.2c1-0.1,2-0.1,2.9-0.1c1,0,1.9,0,2.9,0.1c0.3,0,0.5,0,0.6,0c0.1,0,0.1,0,0.2,0c2,0.3,3.9,0.9,5.7,1.5
		c-0.5-0.1,1.5,0.7,1.7,0.8c0.9,0.5,1.8,1,2.6,1.6c0.3,0.2,0.4,0.3,0.6,0.4c0.1,0.1,0.3,0.3,0.5,0.5c0.9,0.7,1.7,1.5,2.4,2.3
		c0.8,0.8,1.6,1.7,2.4,2.6c-1.1-1.3,1.2,1.7,1.1,1.6c0.6,0.9,1.2,1.9,1.7,3c0.1,0.2,0.2,0.4,0.2,0.5c0.2,0.6,0.4,1.2,0.6,1.8
		c0.2,0.7,0.4,1.5,0.6,2.3c-0.2-0.8,0.2,1.5,0.2,1.9c0.1,1,0,2,0,3.1c0,0.2-0.2,1.7-0.2,2c-0.3,1.8-0.8,3.5-1.3,5.2
		c-0.3,1-0.7,2-1.1,3c0.8-1.9-1,1.9-1.2,2.2c-4.2,8.1-9,13.3-16.5,19.7c-0.6,0.6-1.3,1.1-2,1.6c0.6-0.5-1.4,1-1.5,1.1
		c-1.9,1.4-3.8,2.7-5.8,4c-2,1.3-4,2.4-6.1,3.5c-1,0.6-2.1,1.1-3.2,1.6c-0.6,0.3-1.3,0.6-1.9,0.9c-0.2,0.1-0.4,0.2-0.8,0.3
		c-9.7,3.9-16.8,5.1-26.4,4.8c-4.5-0.1-6.5-0.5-11.8-2c-5.1-1.4-7.7-2.7-12.6-5.8c-0.7-0.4-1.4-0.9-2.1-1.4
		c-0.2-0.2-0.4-0.3-0.6-0.4c-0.1-0.1-0.2-0.2-0.4-0.4c-1.2-1-2.3-2-3.3-3.1c-0.4-0.4-2.1-2.6-2.2-2.5c-0.8-1.1-1.5-2.3-2.2-3.6
		c-0.3-0.5-0.5-1-0.7-1.5c0,0,0,0,0-0.1c0-0.1-0.1-0.2-0.1-0.3c-0.5-1.2-0.8-2.5-1.1-3.8c-0.1-0.5-0.2-0.9-0.3-1.4
		c0-0.1,0-0.1,0-0.2c-0.1-1.5-0.1-3.1,0-4.6c0,0,0,0,0,0c0.1-0.5,0.2-1,0.3-1.5c0.2-0.9,0.5-1.8,0.8-2.7c-0.3,0.9,0.9-1.9,1.3-2.5
		c0.2-0.3,0.4-0.7,0.6-1c0.2-0.3,0.7-1,0.9-1.2c0.9-1.1,1.9-2,3-2.9c0.1-0.1,0.2-0.2,0.3-0.2c0.6-0.4,1.1-0.8,1.7-1.2
		c1.3-0.8,2.7-1.6,4.1-2.2c0.1,0,0.2-0.1,0.3-0.1c0.2-0.1,0.4-0.1,0.7-0.3c1-0.4,2-0.7,3-1c5.8-1.8,9.5-7.8,7.8-13.8
		c-1.6-5.8-7.9-9.6-13.8-7.8c-17.5,5.3-31.1,18.2-33.3,36.9c-2,17.3,8.3,33.1,21.9,42.6c32.5,22.8,76.3,11.2,103.7-14.3v59.3
		c0,7.2,11.2,7.2,11.2,0v-71.7c2.1-2.8,3.9-5.6,5.6-8.6V264c0,7.2,11.2,7.2,11.2,0v-43.4c10.1,5.5,22.8,5.1,32.9-0.5
		c4-2.2,7.3-5.3,9.9-8.9c1.9,3.2,4.1,6.3,6.8,9.1c4.2,4.4,11.6,4.2,15.9,0c4.4-4.4,4.2-11.4,0-15.9c-0.4-0.4-0.8-0.9-1.2-1.3
		c-0.3-0.3-0.8-1-0.9-1.2c-1-1.4-1.9-3-2.6-4.6c-0.1-0.2-0.5-1.1-0.7-1.5c-0.2-0.5-0.4-1.1-0.6-1.6c-0.7-2-1.2-4.1-1.7-6.2
		c-0.2-0.9-0.4-1.9-0.5-2.8c0-0.2-0.2-1.5-0.3-1.8c-0.2-2-0.4-3.9-0.5-5.9c-0.2-4.4-0.2-8.9,0-13.3c0.2-5.6,0.8-11.1,1.4-16.6
		c4.3,6.4,8.9,12.7,12.4,19.6c4.7,9.2,17.6,5.9,20.5-2.7c2.4-7.1,4.9-14,7.7-20.6c2.1,20,4.3,40.1,0.6,59.5
		c-1.2,6,1.6,12.1,7.8,13.8C1243.1,218.8,1250.2,215.4,1251.4,209.4z M1156.1,197.2C1156.3,196.9,1156.2,197,1156.1,197.2
		L1156.1,197.2z M1160.1,185.5C1160,186.1,1160,186.6,1160.1,185.5L1160.1,185.5z M1160.2,184.7c0,0,0,0.1,0,0.1
		c-0.1,0.4-0.1,0.9-0.2,1.3c-0.2,1.4-0.6,2.8-0.9,4.1c-0.3,1.1-0.7,2.2-1.1,3.3c0,0.1,0,0.1-0.1,0.2c-0.1,0.2-0.2,0.5-0.3,0.7
		c-0.5,1-1,1.9-1.6,2.8c-0.1,0.2-0.3,0.4-0.4,0.6c-0.1,0.2-0.3,0.4-0.4,0.5c-0.3,0.4-0.7,0.7-1.1,1.1c-0.4,0.3-1.4,1-1.8,1.3
		c-0.3,0.1-0.5,0.3-0.8,0.4c-1.1,0.4-2.3,0.7-3.5,0.9c-0.3,0-0.6,0-0.9,0c-0.5,0-0.9,0-1.4,0c-0.5-0.1-1.6-0.2-2.1-0.4
		c-0.4-0.1-0.8-0.2-1.2-0.4c-0.8-0.4-1.6-0.9-2.4-1.4c-0.2-0.1-0.4-0.3-0.5-0.3c0,0,0,0-0.1-0.1c-1.4-1.2-2.7-2.5-3.8-3.8
		c-0.2-0.3-1.3-1.7-1.6-2.2c-0.7-1-1.3-2-1.8-3c-0.6-1-1.2-2.1-1.7-3.2c-0.3-0.6-1.3-2.8-1.4-3.1c-1.8-4.6-3.2-9.4-4.2-14.2
		c-0.3-1.3-0.5-2.6-0.7-3.9c-0.1-0.5-0.3-2.2-0.4-2.9c-0.3-2.3-0.4-4.6-0.5-7c-0.1-2.5-0.1-4.9,0-7.4c0-1.2,0.1-2.3,0.2-3.5
		c0-0.4,0.1-0.8,0.1-1.2c0-0.1,0-0.2,0-0.2c0.3-2,0.8-4.1,1.4-6c0.1-0.4,0.2-0.8,0.4-1.2c0.2-0.5,0.7-1.6,0.9-2
		c0.2-0.3,0.3-0.6,0.5-0.9c0.2-0.2,0.3-0.4,0.5-0.6c2.6,0.8,5.5,0.6,8.2-0.5c0.1,0,0.2-0.1,0.4-0.1c0.5-0.2,1-0.3,1.5-0.5
		c0.4-0.1,0.7-0.2,1.1-0.3c0.6,0,1.2,0,1.7,0c0.5,0.1,1,0.2,1.4,0.4c0.2,0,0.3,0.1,0.4,0.1c0,0,0,0,0,0c0.9,0.4,1.7,1,2.6,1.5
		c0.1,0,0.1,0.1,0.2,0.1c0.1,0.1,0.3,0.2,0.4,0.4c1,0.8,1.8,1.8,2.7,2.7c0.3,0.4,0.7,0.8,1,1.2c0.6,0.9,1.2,1.7,1.8,2.6
		c1.5,2.3,2.7,4.7,3.9,7.2c0.1,0.2,0.2,0.4,0.3,0.6c0.1,0.3,0.2,0.6,0.4,0.9c0.5,1.3,0.9,2.5,1.4,3.8c0.9,2.8,1.7,5.7,2.3,8.6
		c0.3,1.3,0.6,2.7,0.8,4.1c0.1,0.6,0.2,1.2,0.3,1.8c0.4,2.9,0.5,5.9,0.6,8.8C1160.6,179.4,1160.5,182.1,1160.2,184.7z M1313.3,128
		c-6.5-6-13.9-11.2-22.4-13.7c-5.5-1.6-11.3-1.8-17.1-1.9c-0.8-9.2-1.3-18.5-1.1-27.9c0.2-6.1-5.2-11.2-11.2-11.2
		c-6.2,0-11,5.1-11.2,11.2c-0.7,25,4.4,49.5,4.7,74.4c0.3,20.2-4.5,41.7,5,60.6c1,1.9,2.6,3.4,4.4,4.3v46.9c0,5.4,8.4,5.4,8.4,0
		v-46.1c0.9-0.2,1.7-0.6,2.5-1c13.2,0.9,25.9-4.9,36.3-13c11.6-9.2,20.8-22.7,21.6-37.8C1334.2,155.6,1325.7,139.4,1313.3,128z
		 M1310.6,174.2c-0.2,0.7-0.3,1.4-0.5,2c-0.1,0.4-0.9,2.4-0.8,2.4c-0.5,1.1-1.1,2.1-1.7,3.1c-0.6,1.1-1.3,2.1-2,3.2
		c-0.2,0.3-0.4,0.6-0.7,0.9c0.4-0.6-1,1.2-1.2,1.4c-2,2.3-4.1,4.3-6.4,6.2c-0.2,0.2-0.3,0.3-0.5,0.4c-0.4,0.3-0.8,0.6-1.3,0.9
		c-1.1,0.8-2.2,1.5-3.4,2.1c-1.1,0.7-2.3,1.3-3.5,1.9c-0.3,0.2-0.7,0.3-1,0.5c0.6-0.3-1.4,0.5-1.7,0.6c-1.2,0.4-2.4,0.7-3.6,1
		c-0.6,0.1-1.2,0.3-1.8,0.4c0,0,0,0,0,0c-0.1,0-0.4,0-0.6,0c-0.9,0.1-1.8,0.1-2.7,0c-0.1-0.9-0.4-2.5-0.4-2.4
		c-0.5-4.5-0.5-9.1-0.4-13.6c0.2-9.4,1.1-18.8,0.9-28.3c-0.2-7.4-0.8-14.7-1.4-22.1c0.3,0,0.6,0,0.9,0c1.3,0,2.6,0.1,3.8,0.2
		c0.2,0,0.4,0,0.7,0.1c-0.4,0,1.4,0.2,1.8,0.3c1.2,0.2,2.4,0.6,3.5,1c0.2,0.1,0.4,0.1,0.5,0.2c0.8,0.4,1.5,0.8,2.3,1.2
		c3,1.7,4.5,3,7.1,5.2c2.2,1.9,4.3,4,6.2,6.2c1.4,1.6,2.6,3.4,4.4,6.6c2.6,4.6,3.7,9.7,3.7,15.7
		C1310.8,172,1310.6,173.8,1310.6,174.2z M1248.1,225c-0.5,0.2-1,0.3-1.5,0.4c-1.7-0.8-4-0.7-5.5,0.2c-1.6,0.9-2.4,2.4-2.6,3.9
		c-0.6,0.9-1.1,1.8-1.6,2.6c-1.4,2.1-0.8,5.1,0.9,6.8c2.1,2,5,3.5,7.9,2.5c0.1,0,0.1,0,0.2,0c3.3,0.6,5.7-0.9,6.9-3.9l2.2-5.6
		C1256.6,227.9,1251.9,223.8,1248.1,225z"/>
	<circle cx="1282.4" cy="226.6" r="12.7"/>
	<circle cx="1304.5" cy="224.7" r="6.4"/>
	<circle cx="1108.6" cy="315.9" r="6.4"/>
</g>
<g>
	<g>
		<path d="M136.2,347.4c-10.1,7.7-20.4,14.9-29.4,23.8c-4.8,4.7,0.2,9.8,4.9,11c4.5,1.2,9.3,1.1,13.9,0.8c3.5-0.2,7.9-1.2,10.9,0.9
			c-0.2-3.1-0.4-6.2-0.6-9.3c-3.1,4.8-8.9,7.2-12.5,11.8c-2.3,2.9-2.6,6.9,0.6,9.3c6,4.3,2.5,20.6,1.9,27.6
			c-0.5,6.7,0.2,13.4,0.5,20.1c0.4,8.7,0.7,17.4,0.6,26.1c0,5.8-0.3,11.9,1.2,17.5c1.6,6.1,5.9,10.7,10.4,14.8
			c10.6,9.6,17.2,22.8,30.1,29.8c4.6,2.5,11-0.1,14.2-3.6c7.8-8.3,16.1-16.3,21.2-26.7c2.7-5.6,3.3-11.7,3.7-17.8
			c0.5-7.2,1.3-14.5,1.7-21.7c1.7-28.7-3.3-57.7-3.3-86.5c0-11-20.4-8.6-20.4,1c0.1,27.5,4.2,55,3.5,82.5
			c-0.2,6.6-0.9,13.2-1.4,19.7c-0.5,5.6-0.2,11.6-1.9,17c-3.4,10.3-12.6,18.1-19.9,25.7c4.7-1.2,9.5-2.4,14.2-3.6
			c-5-2.7-8.9-8.1-12.4-12.4c-4.7-5.7-9.5-11.2-15-16.2c-8.5-7.6-5.5-21.4-5.7-31.5c-0.3-13.9-1.8-27.6-0.6-41.4
			c1-10.6,2.6-25.2-7.3-32.3c0.2,3.1,0.4,6.2,0.6,9.3c3.6-4.5,9.2-6.8,12.5-11.8c2-3,2.8-6.8-0.6-9.3c-5.2-3.8-10.9-4.7-17.2-5
			c-5.4-0.2-10.8,1.2-16.1-0.2c1.6,3.7,3.3,7.3,4.9,11c7.9-7.7,17.2-13.8,25.9-20.5c3.5-2.7,5.2-7.8,1.1-10.9
			C146.5,343.5,140.1,344.4,136.2,347.4L136.2,347.4z"/>
	</g>
	<path d="M285.3,509.6c-5.5-13.3-4.3-29.3-6.1-43.4c-1.1-8.5-2.4-16.9-3.5-25.4c1.1-0.5,2.2-1.1,3.1-1.8c3.2-2.3,2.7-5.5-1.4-6.1
		c-0.9-0.2-1.8-0.3-2.7-0.4c-0.6-5.4-1-10.7-1.3-16.1c-0.4-8.7,0.9-17.3,1-26.5c0.1-9.2-0.2-19.7-7.8-26c-3.2-2.6-8.9-2.9-12.7-3.2
		c-5.2-0.4-10.5-0.2-15.7,0.1c-5.1,0.2-11.8-0.2-16.1,3c-6.1,4.5-9.3,12.8-7.7,20.1c1.2,5.7,4.6,10.6,5.9,16.3
		c1.7,7.2,1,14.8,0.4,22.1c-0.4,5.1-0.7,10.2-1,15.4c-3,1.1-6.7,3-6.1,5.7c0.5,2.1,3.1,2.7,5.7,2.7c-0.3,8-0.6,15.9-1.2,23.9
		c-0.8,12.4-2.1,24.8-3.7,37.1c-1.7,12.6,18.5,12,20,1c3-21.7,4.4-43.6,5.2-65.5c5.1-0.7,10.1-1.2,15.2-1.1
		c0.8,6.2,1.7,12.4,2.6,18.6c1.4,10,2.7,19.9,3.4,29.9c0.6,9.5,1.6,19,5.3,27.9C270.6,528.5,289.7,520.3,285.3,509.6z M240.1,433.4
		C240.1,433.4,240.1,433.3,240.1,433.4c0.4-11.2,2.3-22.4,1.1-33.6c-0.6-5.3-2.4-10.5-4.6-15.4c-0.9-2.1-2-3.8-2.1-5.5
		c2.6-0.1,5.3-0.2,8.7-0.3c3.1,0,6.2,0.1,9.3,0.4c0.2,0,0.4,0,0.5,0c1.3,3.3,1.2,7.7,1.3,12.1c0.1,6.1-0.4,12.1-0.7,18.1
		c-0.4,7.6-0.1,15.1,0.5,22.6C249.3,432.1,244.7,432.7,240.1,433.4z"/>
	<path d="M536.5,509.6c-5.5-13.3-4.3-29.3-6.1-43.4c-1.1-8.5-2.4-16.9-3.5-25.4c1.1-0.5,2.2-1.1,3.1-1.8c3.2-2.3,2.7-5.5-1.4-6.1
		c-0.9-0.2-1.8-0.3-2.7-0.4c-0.6-5.4-1-10.7-1.3-16.1c-0.4-8.7,0.9-17.3,1-26.5c0.1-9.2-0.2-19.7-7.8-26c-3.2-2.6-8.9-2.9-12.7-3.2
		c-5.2-0.4-10.5-0.2-15.7,0.1c-5.1,0.2-11.8-0.2-16.1,3c-6.1,4.5-9.3,12.8-7.7,20.1c1.2,5.7,4.6,10.6,5.9,16.3
		c1.7,7.2,1,14.8,0.4,22.1c-0.4,5.1-0.7,10.2-1,15.4c-3,1.1-6.7,3-6.1,5.7c0.5,2.1,3.1,2.7,5.7,2.7c-0.3,8-0.6,15.9-1.2,23.9
		c-0.8,12.4-2.1,24.8-3.7,37.1c-1.7,12.6,18.5,12,20,1c3-21.7,4.4-43.6,5.2-65.5c5.1-0.7,10.1-1.2,15.2-1.1
		c0.8,6.2,1.7,12.4,2.6,18.6c1.4,10,2.7,19.9,3.4,29.9c0.6,9.5,1.6,19,5.3,27.9C521.8,528.5,540.9,520.3,536.5,509.6z M491.3,433.4
		C491.3,433.4,491.3,433.3,491.3,433.4c0.4-11.2,2.3-22.4,1.1-33.6c-0.6-5.3-2.4-10.5-4.6-15.4c-0.9-2.1-2-3.8-2.1-5.5
		c2.6-0.1,5.3-0.2,8.7-0.3c3.1,0,6.2,0.1,9.3,0.4c0.2,0,0.4,0,0.5,0c1.3,3.3,1.2,7.7,1.3,12.1c0.1,6.1-0.4,12.1-0.7,18.1
		c-0.4,7.6-0.1,15.1,0.5,22.6C500.6,432.1,495.9,432.7,491.3,433.4z"/>
	<g>
		<path d="M312.5,513.3c0.6-1.9,2.3-3.4,3.3-5.1c1.4-2.3,2.5-5.1,3.3-7.7c1-3.3-0.5-5.1-3.1-6.6c-4.5-2.5-5.2-9.1-4.2-13.6
			c1.5-6.8,2.7-13,2.4-20.1c-0.5-14.5-1.4-28.9-2.9-43.3c-1.5-15-3.4-29.9-3.5-45c-5.2,3.7-10.4,7.3-15.5,11
			c7.4,2.5,14.7,5.4,22.7,4.2c-1.5-0.6-3.1-1.1-4.6-1.7c2.6,6.1,5.6,11.9,8.3,17.9c2.9,6.6,4.2,13.4,5.5,20.5
			c2.7,15.2,6.3,30.3,8.9,45.5c2.3,13.6,2.8,27.6,9.1,40.1c5.1,10.2,16.5,8.5,25.3,12.7c6.3,3,16.5-3.8,17.1-10.4
			c2.2-24.1-1.9-48.3-5.1-72.2c-1.6-12.3-2.7-24.6-4.3-36.9c-0.8-6.1-2-12.1-2.6-18.2c-0.2-2.4-0.1-4.8,0-7.2c0.1-1.4,1.1-5,1.1-5
			c2.4-2.4,3.9-7.4-0.7-8.2c-4.9-0.9-9.9,2.5-13.1,5.7c-7.7,7.5-6.4,19.9-5,29.5c2.1,13.6,3.3,27.4,4.9,41.1
			c3.1,26.3,8.4,52.7,6,79.3c5.7-3.5,11.4-6.9,17.1-10.4c-7.8-3.7-18.4-2.5-23.2-10.6c-7-11.8-6.5-27.5-8.9-40.6
			c-2.8-15.4-6.3-30.6-9-46c-2.4-13.5-8.7-24.8-13.9-37.3c-0.6-1.5-3.3-1.9-4.6-1.7c-6.5,1-12.8-2-18.8-4.1
			c-5.5-1.9-15.6,5.1-15.5,11c0.1,14.4,1.7,28.7,3.2,43c1.5,13.9,2,27.8,2.9,41.8c0.4,6.5,0.3,12.4-1.4,18.8
			c-1.6,6.3-1.8,11.8,1.2,17.6c1,1.9,2.4,3.4,3.9,4.8c0.4,0.4,3.2,2.5,2,1.1c-1-1.2,0.2-2.5-0.8-0.1c-0.3,0.9-0.7,2.2-1.3,2.9
			c-2.1,2.7-3.8,5-4.8,8.3c-1.4,4.6,3.8,5.2,7,4.4C305.7,521.3,311.2,517.9,312.5,513.3L312.5,513.3z"/>
	</g>
	<g>
		<path d="M384.4,382.3c-1.6,6.3-1.7,13.2,1.5,19.1c1.6,3,4.1,5,6.8,6.9c0.9,0.6,1.9,1,2.9,1.5c-1.4-2.4-2.8-4.8-4.2-7.2
			c-0.1-0.1-0.1-0.2,0-0.3c-7,7.7-3.3,21.3-1.8,30.6c4.3,25.6,2.6,51.6,6.2,77.3c0.8,5.8,6.7,13.1,13.2,11.6
			c12.3-2.7,24.9,3.7,37.2-0.4c9.4-3.1,13.5-12.5,15.2-21.4c1.9-10.2,0.7-20.7,2.4-30.9c1.1-6.3,2.8-12.3,2.4-18.7
			c-0.4-5.3-2.7-10.3-4.7-15.2c-3.8-9.7-2.8-20.5-7-30.3c-4.1-9.5-10.8-16.9-18.1-24.1c-6-5.8-13.1-19.1-24-16.8
			c-3.7,0.8-7.2,2.6-10.8,3.7c-6,1.9-12.4,2.2-18.7,2.3c-11.2,0.1-2.5,18.3,6,18.2c9.7-0.1,19-1.3,28.1-4.8c1.4-0.5,2.9-1,4.3-1.4
			c-1.5,0.4-3.6-2.1-1.5,0.3c3.3,3.8,6.3,7.5,9.9,11c2.5,2.4,4.2,4.1,6.6,7c1.6,2,2.8,4,3.8,6.9c1.5,4,2,8.3,2.4,12.5
			c0.6,5.5,1.8,10.8,3.9,15.9c1.4,3.5,3,6.8,3.2,10.6c0.4,5.2-2.2,11.5-3,16.6c-1.3,8.6-0.5,17.5-1.7,26.1
			c-1,7.3-3.8,13.5-11.4,15.3c-5.3,1.2-11.5-0.2-16.8-0.9c-5.9-0.7-11.7-0.8-17.5,0.5c4.4,3.9,8.8,7.7,13.2,11.6
			c-3.5-25.1-1.5-50.6-5.9-75.6c-0.9-5.4-1.8-10.8-2.2-16.3c-0.1-1.4-0.5-4,0.1-5.3c0.9-1.8,2.5-3,3.2-5.3
			c1.6-5.6-1.4-12.6-5.8-16.1c-1.8-1.5-3.7-2.7-5.8-3.7c-4.1-2,3.7,9.2,3.9,4c0.1-1.8,0.6-3.6,1-5.3
			C403,383.8,387.1,371.4,384.4,382.3L384.4,382.3z"/>
	</g>
	<g>
		<path d="M534.3,371.4c1.1,5.3,2.3,10.1,5.1,14.8c3.2,5.3,8.9,8.9,14.1,11.8c-2.2-3.2-4.5-6.4-6.7-9.6c-2.3,3-5.7,4.6-9.2,5.8
			c-4.7,1.6-2.5,5.8-0.1,8.4c4.7,5.4,11.5,8,18.3,9.6c-4-3.3-8.1-6.6-12.1-9.9c-0.4,4.1-4.8,6.8-7.7,9.1c-3.6,3,0.8,7.6,3.4,9.4
			c-1.4-1-1.6-1.9-0.4-0.1c-0.2-0.3,0.7,1.9,0.9,2.4c1.1,3,1.5,6.1,1.9,9.2c1,7.3,1.1,14.6,1.3,22c0.6,19,4.6,37.6,4.7,56.6
			c0,5.5,7.7,9,12.1,9.9c5.4,1.1,10.9,2.3,16.4,2c6-0.4,8.1-3.4,10.6-8.2c0.3-0.6,0.4-0.3,1.4-0.6c-1.6,0.4-5.5-1.4-2.6,0
			c3.8,1.7,7.5,3.2,11.7,4c7.1,1.4,14.6-3.2,20.9-2.4c7.8,1,24.9,7.9,29.8-1.6c2.3-4.4,0.5-10.8-0.5-15.3c-1.1-4.8-2.7-9.6-4.8-14
			c-2.5-5.2-8.4-8.2-14-8.4c-7.5-0.2-13.7-5.4-19.1-10c-5.4-4.6-12.8-9.7-16-16.1c-2.3-4.5-17.2-14.1-18.8-4.8
			c-1.7,9.8,1.8,19.3,1.4,29.1c-0.3,7.3,18.8,14.8,19.2,6.5c0.4-9.8-3.1-19.3-1.4-29.1c-6.3-1.6-12.6-3.2-18.8-4.8
			c5.1,10.2,14.3,17.5,22.8,24.8c11.5,9.9,24.8,17.7,40.3,18.3c-4.7-2.8-9.3-5.6-14-8.4c2.8,5.8,7.6,16.5,5.3,23
			c-0.3,0.8,0.1,0.5-1.4,0.5c-1.7,0-4.2-0.6-6.1-1c-5.1-1-10.1-2.1-15.3-2.2c-3.4,0-6.9,1.1-10.1,2c-1.8,0.5-3.5,0.8-5.3,0.9
			c1.2-0.1,0.9,0.2-0.7-0.5c-5.7-2.5-11.9-5.2-18.1-2.5c-2.1,0.9-3.6,2.1-4.6,4.2c-0.7,1.3-0.7,2.5-2,3.4c-1.9,1.3-9-1.3-11.2-1.7
			c4,3.3,8.1,6.6,12.1,9.9c-0.1-20.2-4.2-40-4.8-60.1c-0.5-14.5,0.2-34.1-13-43.5c1.1,3.1,2.2,6.2,3.4,9.4c4.8-4,9.7-7.8,10.3-14.4
			c0.5-5.4-8.1-9-12.1-9.9c-1.6-0.4,3.1,3,0.3-0.1c0,2.8-0.1,5.6-0.1,8.4c5.8-2,10.6-4.5,14.3-9.5c2.7-3.6-4.5-8.4-6.7-9.6
			c-4-2.3-4.8-8.8-5.7-13.6C551.5,367.8,532.3,361.4,534.3,371.4L534.3,371.4z"/>
	</g>
</g>
<g>
	<g>
		<g>
			<path d="M959.5,667.9c1.1,3.4,0.3,9.5-0.4,13.6c-1.1,7-3,14-4.8,20.9c-3.4,13.3-8.3,27.4-7.6,41.3c0.2,4.8,12.4,6.5,15.6,7.1
				c1.9,0.3,16.8,2.8,17-1.4c1-17.6-8.1-33.5-21.5-44.4c-8-6.5-18.1-10.5-28-12.8c-11.8-2.8-25-4.2-36.8-0.6
				c-16.1,4.9-26.2,20.7-32.7,35.3c-6.5,14.6-9.1,30.8-8.9,46.7c0.3,31.5,12.4,64.8,36.2,86.1c15.6,14.1,35.1,21.8,55.8,24.6
				c15.8,2.1,32.7,0.1,44.2-11.8c19.1-19.9,19.8-54.1,8.2-77.8c-4-8.2-10.2-14.7-18.5-18.5c-11.5-5.3-28-8.1-40.2-3.5
				c-15.8,6-26.3,23.1-30.2,38.8c-0.5,2.2-0.9,4.4-1.1,6.7c-0.3,2.8,5.8,4.5,7.4,5.1c6,2,13.6,3.7,19.9,2.8
				c9.8-1.5,19.3-3.9,28.8-6.6c6.8-2-2.5-6-4.8-6.8c-6.6-2.2-15.7-4.3-22.6-2.4c-7.7,2.2-15.5,4.6-23.4,5.8
				c9.1,2.6,18.2,5.2,27.3,7.8c1.6-15.9,10.7-33.1,24.8-41.2c1.7-1,2.1-1.1,3.7-1.6c0.5-0.1,3.1-0.5,0.5-0.2c0.3,0,0.5,0,0.8-0.1
				c-2.6,0.2-5.2,0-7.7-0.6c-1.9-0.5-3.8-0.9-5.7-1.4c-1.8-0.8-2.1-0.9-0.8-0.3c-2.2-1,0.4,0.4,0.7,0.6c1.8,1.3,3.2,3,4.6,4.7
				c4.2,5.3,7.1,12.1,8.8,18.6c6.4,23.7,1.9,58.7-22.8,70.4c-2.1,1,1.3-0.4-0.9,0.4c-0.7,0.3-1.4,0.5-2.1,0.7
				c-0.7,0.2-1.5,0.4-2.2,0.6c-0.5,0.1-3.1,0.5-0.4,0.1c-0.8,0.1-1.6,0.2-2.4,0.2c-2.9,0.2,3.1,0,0.1,0c-3.2,0,3.8,0.3,0.5,0
				c-1.7-0.2-1.2-0.1,1.7,0.2c-1.7-0.3-1.2-0.2,1.6,0.4c-0.9-0.2-1.9-0.5-2.8-0.7c4.3,1.1,0.8,0.2,0-0.1c-3.1-1,2.7,1.1-0.3-0.1
				c-0.9-0.4-1.7-0.7-2.6-1.1c-0.8-0.4-1.7-0.8-2.5-1.2c-0.3-0.1-2.9-1.6-0.9-0.4c-1.9-1-3.7-2.2-5.5-3.4
				c-12.5-8.4-22.2-20.8-29.2-34.3c-14.8-28.3-17.7-63.4-7.6-93.6c3.2-9.6,8-18.9,14.3-26.9c3.6-4.6,7.8-8.5,12.9-11.3
				c2-1.1,3.8-1.7,6.1-2.2c0.6-0.1,1.2-0.3,1.8-0.4c-1.2,0.2-1.2,0.2,0,0.1c1.4-0.1,1.2-0.1-0.7,0c1,0,4.2,0.3-0.3-0.1
				c-2.9-0.4-3.4-0.5-1.6-0.2c-2.8-0.6-3.3-0.7-1.6-0.3c2.6,0.6-3.4-1.2,0.6,0.3c-3.5-1.3,0.5,0.3,1.1,0.6c1.1,0.6,1.1,0.6,0.1,0
				c0.8,0.5,1.7,1,2.5,1.5c4.5,2.9,8.2,6.5,11.5,10.7c7.1,9,10.9,20,10.3,31.5c10.9,1.9,21.7,3.8,32.6,5.7
				c-0.7-13.9,4.1-28,7.6-41.3c1.8-6.9,3.6-13.8,4.8-20.9c0.9-5.4,1.4-10.8-0.4-16.1c-0.6-1.9-5.6-3.4-7.1-3.8
				c-4-1.4-8.3-2.2-12.5-2.6C969.6,664.4,957.9,663.1,959.5,667.9L959.5,667.9z"/>
		</g>
		<g>
			<path d="M1078.9,744.3c-14.3-10.9-31-15.1-48.7-11.1c-15.9,3.6-28.6,11.9-37.1,25.9c-6.9,11.5-10.1,25.1-11.3,38.3
				c-1.1,12.7,0.1,26,5.2,37.7c5.1,11.5,15.6,24.7,28.1,28.4c16.7,4.9,36.9-1,47.5-15c7.2-9.5,10.7-21.6,13.4-33
				c2.8-12,4.6-24.5,5-36.8c0.1-2.3,0.1-4.5,0-6.8c-0.3-7.7-32.5-3.4-32.5,6.3c0,19.6,1.3,39.1,5.7,58.2
				c4.6,19.5,13.1,37.7,24.9,53.8c1.4,2,6.2,2.1,8.2,2.1c4.3,0.1,8.6-0.6,12.6-1.8c3.2-1,13.6-4.6,9.9-9.6
				c-23.3-31.8-28.8-70.5-28.9-109c-10.8,2.1-21.7,4.2-32.5,6.3c0.4,10.6-0.9,21.8-2.7,31.7c-2.2,12.2-5.4,24.7-11.4,35.7
				c-0.6,1.1-1.3,2.2-2,3.3c-0.3,0.5-0.7,1-1,1.5c-1.2,1.7,1.2-1.5-0.1,0.1c-0.7,0.9-1.5,1.7-2.3,2.5c-0.4,0.4-0.8,0.7-1.2,1.1
				c-1.4,1.2,2.6-1.7,0.2-0.2c-0.9,0.6-2.9,1.5,1.4-0.6c-1.1,0.6-3.3,1.2,2-0.6c-2.3,0.8,4.8-1.1,2.4-0.6c1.1-0.2,2.3-0.3,3.4-0.5
				c-1.5,0.1-0.6,0.1,2.5-0.1c-2.9,0.1,3.7,0.7-0.1-0.1c3.8,0.9-0.4-0.4-1.5-0.9c-1.9-1,1.6,1-0.3-0.2c-0.6-0.4-1.2-0.8-1.7-1.2
				c-1.3-0.9-2.4-1.9-3.6-3c-3.1-2.8-5.7-6-8.3-9.4c-3.4-4.5-5.7-9.2-7.5-15.4c-6-20.4-3.1-44,6.8-62.6c1.1-2.1,2.4-4.2,3.8-6.2
				c0.3-0.4,0.5-0.8,0.8-1.1c-1.2,1.7,0.2-0.2,0.4-0.4c0.9-1,1.8-2,2.7-3c0.8-0.8,1.6-1.5,2.4-2.2c2.4-2-1.8,1.1,0.8-0.6
				c0.9-0.6,4.5-2.5,0.2-0.3c0.6-0.3,1.1-0.5,1.7-0.8c2.4-1-3.9,1.3-1.4,0.5c3.7-1.2-4.5,0.9-0.6,0.2c-3.3,0.4-4.1,0.6-2.5,0.4
				c2.7-0.3-4.1,0.1-1.4,0c0.4,0,0.9,0,1.3,0c2.6,0.1-3.4-0.4-0.8,0c0.7,0.1,1.4,0.2,2.1,0.4c2.5,0.5-2.4-0.7,0.1,0
				c6.3,1.8,10,4.2,14.9,8c5.4,4.1,15,2.1,20.8,0.3C1070.8,753.4,1084.1,748.3,1078.9,744.3L1078.9,744.3z"/>
		</g>
		<g>
			<path d="M1085.7,744.5c-2.5,37.6,9.8,74.7,19.1,110.6c1.9,7.2,11.9,12.2,18.4,13.6c5.7,1.2,12.7-0.2,10.8-7.4
				c-8.9-34.4-20.5-69.5-18.1-105.4C1116.7,744.6,1086.6,731.6,1085.7,744.5L1085.7,744.5z"/>
		</g>
		<g>
			<path d="M1095.4,764.5c1.5,0.7-3.6-2.3-0.3-0.1c1,0.7,2,1.4,2.9,2.2c0.3,0.3,0.6,0.6,0.9,0.8c1.9,1.7-2.6-2.7-0.8-0.8
				c0.9,1,1.8,2,2.6,3c1.7,2,3.1,4.2,4.5,6.5c0.7,1.1,1.3,2.2,2,3.3c0.6,1,3.2,6,0.9,1.6c6.1,11.6,10.8,24,16.1,36
				c10.7,24.2,25.1,52.8,54.5,56.6c7.5,1,18.3-3.6,19.9-12c4.5-24.5,2.3-49-2.9-73.2c-5.1-23.4-13.9-46.1-26.3-66.7
				c-4.4-7.4-16.2-6.6-22.4-2.7c-7.2,4.4-9.9,12.6-5.5,19.9c1.2,2,2.4,4,3.5,6c0.2,0.4,2.1,4,0.5,0.9c0.7,1.4,1.5,2.9,2.2,4.3
				c2.4,4.9,4.5,9.9,6.5,15c4.1,10.6,7.4,21.5,9.9,32.5c0.6,2.6,1.1,5.2,1.6,7.7c0.1,0.3,0.8,4.6,0.3,1.5c0.3,1.7,0.5,3.4,0.8,5.2
				c0.8,5.5,1.3,11.1,1.6,16.6c0.3,5.4,0.3,10.7,0,16.1c-0.1,2.4-0.3,4.8-0.5,7.1c-0.1,1.2-0.3,2.3-0.4,3.5c0.5-3.6-0.3,1.3-0.4,2
				c6.6-4,13.2-8,19.9-12c-1.2-0.2-2.3-0.4-3.5-0.6c5.5,1.2,0.6,0.1-0.7-0.5c-1.2-0.5-5-2.5-0.3,0c-1.2-0.7-2.4-1.5-3.5-2.3
				c-1-0.7-1.9-1.4-2.8-2.2c-0.5-0.5-1.1-1-1.6-1.5c3.3,3.1,1.3,1.3,0.6,0.5c-1.9-2-3.7-4.3-5.3-6.5c-1.8-2.4-3.3-4.9-4.9-7.5
				c-0.7-1.2-1.4-2.4-2.1-3.7c-0.4-0.8-1.9-3.6,0.1,0.3c-0.4-0.8-0.8-1.5-1.2-2.3c-3-5.8-5.6-11.8-8.2-17.8
				c-5.4-12.5-10.7-25.1-17.2-37.2c-5.9-10.9-13.8-20.3-25-25.9c-7.5-3.7-18.1,0.7-22.2,7.5C1084.5,753.4,1088.1,760.9,1095.4,764.5
				L1095.4,764.5z"/>
		</g>
		<g>
			<path d="M1275.7,743.9c-7-11.8-21.2-15.1-34-14.8c-13,0.3-25.2,4.3-35.5,12.2c-15,11.5-20.5,31.8-21.7,49.8
				c-1,15.6,1.9,31.1,7.9,45.5c3,7.3,7.3,14,12.9,19.7c7.7,7.7,18.4,10.6,29,11c11.7,0.4,24.5-3.7,33-11.8
				c6.7-6.4,10.5-15.2,12.9-24c4.8-17.7,4.8-36,4.8-54.1c0-7-12-8.4-16.7-8.3c-5,0.1-16.4,1.9-16.4,9c0,14.5,0,29.1-2.5,43.4
				c-0.7,4.1-1,5.5-2.3,9.7c-1.1,3.7-2.6,7.2-4.4,10.6c-0.8,1.5-1.7,2.8-2.7,4.2c1.4-2-1.5,1.5-2.1,2c-0.6,0.5-1.2,1-1.8,1.5
				c2.6-2.1,0.6-0.5,0-0.1c-0.7,0.4-1.4,0.7-2.1,1.1c4.1-1.9,0.3-0.3-0.8,0.1c4.2-1.3,1.5-0.4,0.4-0.2c5-0.8,2.4-0.2,1-0.2
				c6.9,0-1.7-0.7,4.4,0.5c-0.8-0.2-1.5-0.4-2.2-0.6c3.9,1.3,1.5,0.5,0.5,0.1c-0.7-0.3-2.8-1.8,0,0.1c-1.6-1.1-2.9-2.3-4.3-3.7
				c-0.3-0.3-2.1-2.4-0.5-0.5c-0.5-0.7-1.1-1.4-1.6-2c-1-1.4-2-2.9-2.9-4.4c-2-3.4-3.6-7-5-10.6c-0.7-1.7-1.2-3.4-1.8-5.1
				c-0.3-0.8-0.5-1.7-0.8-2.5c-0.8-2.7,0.4,1.7-0.3-1c-0.9-3.2-1.5-6.5-2.1-9.9c-1.3-8.3-1.1-17-0.2-25.3c1.3-11.6,5.8-24.5,13-32.1
				c1-1,2-1.9,3-2.8c0.5-0.4,1.1-0.9,1.6-1.3c-2.2,1.7,0.7-0.3,1-0.5c0.8-0.5,4.8-2,1.6-0.9c0.7-0.2,1.4-0.4,2.1-0.6
				c-4,1.1-0.4,0.1,0.5-0.1c0.7-0.1,1.5-0.3,2.2-0.3c-2.6,0.2-2.9,0.2-1.1,0.1c1.8,0,1.4-0.1-1.2-0.2c1,0,4.3,0.8,0.2-0.1
				c1.5,0.5,1.3,0.4-0.5-0.3c2.9,1.2-1.7-1.5,0.9,0.4c1.8,1.3,1.3,1.1,2.5,3c3.8,6.3,14.2,6.6,20.5,5.6
				C1268.5,754,1279.5,750.3,1275.7,743.9L1275.7,743.9z"/>
		</g>
		<g>
			<path d="M1258.8,784.2c-2.3,54.7,30.7,101,62,142.7c1.5,2.1,6.5,2,8.6,1.8c4.3-0.2,8.5-1.4,12.4-3.1c4.2-1.9,12.4-6.6,8.3-12
				c-29.2-39-61.8-84.2-59.7-135.4c0.3-6.7-9.3-5.9-13.7-5c-4.2,0.8-8.3,2.3-11.9,4.5C1263,778.9,1259,781.6,1258.8,784.2
				L1258.8,784.2z"/>
		</g>
		<g>
			<path d="M1163.4,877.4c-2.7,10-9,18.9-15.5,26.7c-3.4,4.1-7.1,8.1-11,11.7c-1.8,1.6-3.8,3.2-5.8,4.6c-2.4,1.8-4.1,2.7-4.1,5.9
				c0,5.2,7.7,10,11.4,12.2c3.1,1.8,12.6,6.8,16.3,3.6c22.1-18.7,50.6-26.1,78.9-28.4c29-2.4,56.7,0.4,86,5.3
				c6.4,1.1,8.6-3.3,4.7-8.2c-4.8-6.1-12.8-10.3-20.3-11.6c-29.9-4.9-60.4-7.7-90.6-5.6c-29.9,2.1-61.3,9.9-84.6,29.6
				c9.2,5.3,18.5,10.5,27.7,15.8c0-0.4,0-0.8,0-1.2c-0.6,1-1.2,2.1-1.8,3.1c8.7-5.7,16.2-13.4,22.7-21.4
				c6.2-7.6,12.1-16.2,14.7-25.8C1195,883.3,1165.4,869.9,1163.4,877.4L1163.4,877.4z"/>
		</g>
	</g>
	<g>
		<path d="M993.1,827.6c0,32.5,0,65,0,97.5c0,2,5,1.9,5-0.1c0-32.5,0-65,0-97.5C998.1,825.5,993.1,825.6,993.1,827.6L993.1,827.6z"
			/>
	</g>
	<g>
		<path d="M1008.4,851.2c0,17,0,34,0,51c0,1.1,4.3-0.9,4.3-2.3c0-17,0-34,0-51C1012.7,847.8,1008.4,849.9,1008.4,851.2L1008.4,851.2
			z"/>
	</g>
	<g>
		<path d="M1322,800.3c4.6-2.5,9.6-5,14-5.7c4.8-0.7,8.3,1.4,12.3,5.6c4.4,4.7,13,1.7,16.8-2c4.5-4.5,5.2-10.6,0.8-15.3
			c-15.6-16.6-37.4-9.5-54.7,0c-5.1,2.8-8.5,10-5.2,15.3C1309.5,803.8,1316.9,803,1322,800.3L1322,800.3z"/>
	</g>
	<g>
		<path d="M1006.5,649.8c8.7,24.1,32,38.3,54.8,46.8c20.8,7.8,43.2,11.5,65.3,13.4c11,1-1.3-20-8.7-20.6
			c-19.3-1.7-38.6-4.9-57.1-10.7c-4.7-1.5-9.4-3.2-13.9-5.1c-3.9-1.7-9.7-4.7-12.1-6.2c-4.9-3.1-6.3-4.4-9.3-7.5
			c-2.4-2.5,1.7,2.1-0.5-0.6c-0.4-0.5-0.8-1.1-1.2-1.6c0.9,1.4,1,1.5,0.2,0.3c-0.2-0.3-1.7-3.2-0.5-0.8c-0.6-1.2-1.1-2.4-1.5-3.7
			c-1.8-5-6.8-10.9-12.1-12.2C1004.3,640,1005.4,646.6,1006.5,649.8L1006.5,649.8z"/>
	</g>
	<g>
		<path d="M1102.5,672c0.1,0,0.2-0.1,0.3-0.1c-2.1,0.3-4.2,0.6-6.3,0.9c0.1,0,0.2,0,0.4,0c-1.7-0.4-3.4-0.8-5.1-1.2
			c0.3,0.1,0.6,0.3,0.9,0.4c-1.7-1,0.5,0.5,0.7,0.8c1.6,1.5,3,3.1,4.5,4.8c3.1,3.4,6.2,6.4,9.9,9.1c11.3,8.2,23.7,13.8,37.7,14.9
			c-1.9-3.4-3.8-6.8-5.8-10.3c-3.2,3.1-6.7,4.8-11.7,6.9c2-0.8-2.2,0.8-2.1,0.8c-1.3,0.5-2.7,0.9-4,1.3c-3.2,1-6.4,1.9-9.7,2.8
			c-12.2,3.3-24.6,6.3-35.8,12.1c-3.5,1.8-9.7,6.8-5.7,11.2c3.8,4.2,11.9,2.7,16.2,0.4c1.1-0.6,2.3-1.1,3.4-1.7
			c0.8-0.4,1.6-0.7,2.4-1c-1,0.4-0.8,0.3,0.6-0.2c3-1.1,6.1-2,9.3-3c6.4-1.9,13-3.5,19.4-5.3c13.7-4,27.1-9.4,37.6-19.5
			c5.4-5.3-0.2-9.9-5.8-10.3c-6.3-0.5-12-3-17.5-6c-5.2-2.8-10-6.2-12.8-8.9c-7.4-7.4-13.1-16.9-25.3-12.9c-4,1.3-11.5,5.2-9.8,10.6
			C1090,674,1098.5,673.3,1102.5,672L1102.5,672z"/>
	</g>
</g>
<g>
	<g>
		<path d="M1003.5,22.9c0-1.1,0-2.2,0-3.3c0-2-5-1.8-5,0.3c0,0.2,0,0.4,0,0.7c0,2,5,1.8,5-0.3c0-1.1,0-2.2,0-3.3c0-2-5-1.8-5,0.3
			c0,1.1,0,2.2,0,3.3c0,2,5,1.8,5-0.3c0-0.2,0-0.4,0-0.7c0-2-5-1.8-5,0.3c0,1.1,0,2.2,0,3.3C998.5,25.1,1003.5,24.9,1003.5,22.9
			L1003.5,22.9z"/>
	</g>
</g>
<g>
	<g>
		<path d="M923.5,515.5c-2.2,0-4.4,0.5-6.6,0.9c-1.7,0.4-3.4,0.8-5,1.2c-0.8-4-1.7-7.9-2.4-11.9c-1.5-8.2-1.8-16.2-1.7-24.5
			c0.2-9.6,0.6-19.7,3.4-28.9c2.5-8.4,7.3-15.8,10.1-24.1c0.2-0.7-8,0.5-8.2,0.6c-3.9,0.8-8.5,1.6-12,3.6c-0.6,0.4-1.3,0.7-1.8,0.9
			c-5.2,1.4-10.3,3-14.9,5.7c-3.8,2.2,3.4,1.1,4.3,1c2.9-0.5,6.2-1,9.3-2c-2.7,6.6-6.2,12.8-8.4,19.6c-2.9,9.1-3.1,19.4-3.4,28.9
			c-0.2,8.3,0.2,16.3,1.7,24.5c1.4,7.6,3.3,15.2,4.6,22.8c0.4,2.1,19.5-3.1,21.3-4.8c4-4,6.9-9,11.1-12.8
			C925.8,515.4,923.7,515.5,923.5,515.5z M904.2,432.3c-0.1,0-0.2,0-0.3,0.1C906.7,431.6,905,432.1,904.2,432.3z M836.2,392v39.2
			c0,1,1.2,2.2,1.9,2.9c0.1,0.1,1.9,1.8,1.9,0.9v-38.3c1.5,1.6,3,3,4.6,4.3v16.2c0,1.1,5.3,0.1,5.3-1.7v-10.7
			c4.6,2.8,9.9,4.9,14.9,6.6c6.4,2.3,12.8,4.5,19.2,6.9c6.6,2.5,13.7,4.6,20.8,4.3c8.3-0.4-0.9-20.2-8.5-19.9
			c-6.8,0.3-13.4-2.3-19.8-4.8c-6.6-2.5-13.3-4.6-19.9-7.1c-1.4-0.5-2.8-1.1-4.2-1.7c0.1,0.1-1.4-0.7-1.4-0.7
			c-0.7-0.4-1.3-0.7-2-1.1c-0.3-0.1-0.5-0.3-0.8-0.5c0.2-0.2,0.3-0.5,0.5-0.7c1-1.4,2.2-2.4,3.5-3.4c10.1-8.1,23.5-11.5,36.1-13.3
			c13.6-2,27.6-1.9,41.2-0.1c1.8,0.2,3.5,0.5,5.7,0.9c1.3,0.3,2.7,0.5,4,0.9c-10.1,7-22.5,11.1-33.6,16.1
			c-4.2,1.9-0.5,10.1,0.9,12.4c1.9,3.1,6.3,8.5,10.6,6.6c8.5-3.9,17.3-7.3,25.6-11.6c6.4-3.3,16.3-8.1,17.5-16.2
			c1.1-7-3.5-14.8-8.8-19.1c-5.1-4.1-11.3-6.2-17.6-7.7c-13.2-3.2-27.2-4-40.8-3.3c-13,0.6-26,2.8-38.1,7.5
			c-5.9,2.3-11.7,5.4-16.4,9.7c-5.5,5-7.3,10.6-6,17.9C833.2,386.6,834.5,389.4,836.2,392z M845.1,384.9L845.1,384.9
			c0-0.1-0.1-0.1-0.1-0.2C845.1,384.8,845.1,384.8,845.1,384.9z M880.2,467.7c-4.9-1.1-9.8-2.4-14.7-3.6c0.4-3.7,0.9-7.4,1.6-11.1
			c0.4-2.3,1-4.6,1.6-6.9c0.3-1,0.6-2,0.9-3c0.1-0.3,0.2-0.6,0.3-0.9c-0.1,0.3,0.5-1.3,0.5-1.4c1.6-4.2,3.6-8.1,5.9-11.9
			c3.2-5.1-3-8-7.1-8.2c-5.8-0.2-12.4,2.3-15.6,7.4c-5.9,9.3-9.3,19.8-11.2,30.7c-5.3-1-10.7-1.8-16.1-2.3
			c-10.9-0.9-21.8-0.3-32.2,2.1c-0.7-15.1-0.8-30.2-1.6-45.3c-0.1-2.5-11.8,0.8-12.7,1.1c-2.8,0.9-5.6,1.9-8.2,3.3
			c-0.8,0.5-3,1.5-3,2.8c0.9,15.9,0.9,31.9,1.8,47.8c-1.3,0.8-2.5,1.6-3.8,2.5c-3.3,2.3-9.8,7.9-6.7,12.7c2.3,3.6,7.8,2.5,11.7,0.8
			c1.7,18,5,36.7,14.2,52.4c0.7,1.2,3.1,0.8,4,0.7c2.9-0.3,5.9-1,8.7-1.8c0.9-0.3,12.4-4,11.2-6.2c-9.7-16.5-12.7-36.2-14.4-54.9
			c0.9-0.1,1.8-0.2,2.7-0.3c2-0.2,4-0.3,6.1-0.3c5.2-0.1,7.2,0.1,11.6,0.5c8.5,0.9,16.9,2.6,25.3,4.6c0,1.9,0,3.7,0.1,5.5
			c0.4,13.6,2.2,27.2,5.7,40.4c-0.2,0-0.4,0-0.6,0c-4.9,0-8.9,3.7-9.5,8.5c-0.8-1.1-2.1-1.8-3.6-1.8c-2.5,0-4.5,2-4.5,4.5
			c0,2.5,2,4.5,4.5,4.5c1.9,0,3.5-1.1,4.2-2.8c1.4,3.6,4.8,6.1,8.9,6.1c2.3,0,4.4-0.8,6-2.1c0.1,0.2,0.2,0.4,0.2,0.7
			c0.6,1.5,1.6,2.5,2.9,3.2v18c0,1.7,7.8,2.8,7.8,3v-20.2c0.5-0.1,1.1-0.2,1.6-0.3v73.9c0,2.6,7.4-0.7,7.4-3.3v-73.6
			c3-1.9,5.5-4.7,4.3-7.9c-3.2-8.3-5.6-16.9-7.5-25.7c-1-4.8-1.8-9.7-2.5-14.6c-0.5-3.7-0.8-7-1-10.2c0.3,0.1,0.5,0.1,0.8,0.2
			c5.7,1.3,12.4-2.8,15.8-7C884.4,474.9,885.9,469,880.2,467.7z M837.5,542c-1.1,0-2,0.9-2,2c0,1.1,0.9,2,2,2c1.1,0,2-0.9,2-2
			C839.5,542.9,838.6,542,837.5,542z M837.4,523.2c0-1.7-1.3-3-3-3s-3,1.3-3,3c0,1.7,1.3,3,3,3S837.4,524.8,837.4,523.2z
			 M1112.7,557c-1,0.2-1.7,1.1-1.5,2.2c0.2,1,1.1,1.7,2.2,1.5c1-0.2,1.7-1.1,1.5-2.2C1114.7,557.5,1113.8,556.8,1112.7,557z
			 M1092.2,545.4c-0.1-0.1-0.2-0.3-0.3-0.4c0,0,0,0,0-0.1c-0.1-0.1-0.1-0.2-0.2-0.2c-0.1-0.1-0.1-0.1-0.2-0.2c0,0-0.3-0.3-0.4-0.2
			c0,0-0.1,0.1-0.2,0.1c-0.3,0-0.5,0-0.6,0c0-0.1-0.1-0.1-0.1-0.2c0,0-0.8-0.9-0.8-0.6c0,0.2,0.1,0.4,0.1,0.6c-0.1,0-0.2-0.1-0.2,0
			c-0.1,0,0,0.4,0.1,0.7c-0.1,0-0.2,0.1-0.3,0.1c-0.2,0-0.4,0-0.4,0.2c0,0,0,0,0,0c0,0,0,0,0,0c-0.6,0-0.8,1.1-0.8,1.7
			c0,0.5,1.1,2,1.6,2.1c0.5,0.1,1.1,0.3,1.6,0.4c0.1,0.1,0.1,0.1,0.2,0.2c0.3,0.5,1.2,1.7,1.5,1.5c0.3-0.2,0-0.8-0.1-1.1
			c0,0,0.1,0,0.1-0.1c0.3-0.3,0.3-0.8,0.3-1.3c0.1-0.1,0-0.2,0-0.4c0,0,0-0.1,0-0.1c0.1,0,0.2,0,0.2-0.1c0.2,0.1,0.3,0.1,0.4,0
			c0,0,0,0,0,0s0,0,0,0c0,0,0,0,0-0.1c0-0.1-0.1-0.3-0.2-0.5c0.1-0.1,0.1-0.2,0.2-0.2C1093.9,547.1,1092.7,545.8,1092.2,545.4z
			 M1037.8,516.6c-1.6,0.3-2.8,1.8-2.5,3.5c0.3,1.6,1.8,2.8,3.5,2.5c1.6-0.3,2.8-1.8,2.5-3.5C1041,517.4,1039.4,516.3,1037.8,516.6z
			 M1030.6,583c-0.1-0.4-0.3-0.7-0.4-1.1c-0.1-0.2-0.3-0.4-0.5-0.6c-1.1-0.9-2.8-0.9-3.9,0.1c-0.5,0.4-0.9,1.1-0.9,1.7
			c0,0.3,0,0.6,0.1,0.9c0,0.4,0.1,0.8,0.2,1.2c0.1,0.5,0.3,0.8,0.7,1.1c0.1,0.2,0.1,0.4,0.2,0.6c0.4,1.4,1.9,2,3.2,1.6
			c1.2-0.3,2.5-1.5,2.1-2.9C1031.1,584.8,1030.9,583.9,1030.6,583z M1323.4,482.6c-9.8-5.1-19.8-9.8-29.5-15.2
			c-0.5-0.3-1.1-0.6-1.6-0.9c-0.3-0.2-2.3-1.4-2.7-1.7c-2.4-1.5-4.7-3.1-7-4.8c-0.7-0.5-1.4-1-2.1-1.6c1,0.8-1.9-1.6-2.4-2
			c-2.3-2-4.5-4.1-6.7-6.3c-0.4-0.5-0.9-0.9-1.3-1.4c0.7,0.8,0.7,0.7-0.1-0.1c-1-1.1-2-2.3-3-3.5c-2-2.4-3.8-4.8-5.6-7.3
			c-3.7-5.1-5.5-8.3-8.3-14c-5.2-10.7-8.2-21.7-8.7-33.5c-0.2-5.3-7.5-9.3-11.7-10.8c-2.8-1-11.4-2.8-11.2,2.6
			c1.1,26.8,14.8,50.8,32.6,70.1c14,15.1,31.8,24.7,49.8,33.9c-0.9,0.3-1.8,0.5-2.7,0.7c-1.1,0.2-2.2,0.4-3.3,0.6
			c-0.4,0.1-0.7,0.1-1.1,0.1c0.2,0-1.1,0.1-1.4,0.1c-2.5,0.2-4.9,0.2-7.4,0.1c-4.5-0.1-9-0.3-13.5-0.5c-3.8-0.2-7.6-0.5-11.4-0.8
			c-1.7-0.2-3.4-0.3-5.1-0.5c-0.1,0-1.8-0.2-2-0.2c-0.8-0.1-1.6-0.2-2.4-0.3c-1.5-0.2-3-0.4-4.5-0.6c0.1-5.7-0.1-11.5-0.7-17.3
			c-0.8-7.8-2.4-15.4-5.2-22.8c-2.7-7-7-17.2-16.2-16.6c-6.1,0.4-12.2,4.2-14.5,10.1c-1.7,4.3,0.3,8.7,4.5,9.6c0,0,0.1,0.1,0.1,0.1
			c0.4,0.6,0.8,1.2,1.2,1.7c0.8,1.3,1.5,2.8,2.2,4.2c0.1,0.3,0.3,0.6,0.4,0.9c0.3,0.8,0.6,1.6,0.9,2.4c2.6,7.2,3.8,14.8,4.5,22.4
			c0.1,0.8,0.1,1.5,0.2,2.3c-1.6-0.2-3.2-0.4-4.8-0.5c0.1-1.2,0.2-2.4,0.1-3.6c-0.2-6.1-3.8-11.8-7.6-16.4c-4.2-5.2-9.3-9.6-14.2-14
			c-1-0.9-2.1-1.9-3.1-2.8c-0.1-0.1-0.6-0.5-0.8-0.8c-0.3-0.3-0.6-0.6-0.9-0.9c-1.9-1.9-3.8-3.8-5.6-5.8c-4-4.2-8.3-8.8-11.2-13.7
			c-3-5-4.9-10.8-2.4-16.4c1.5-3.3-8.2-7.5-10-8.3c-1.8-0.8-11.4-5-12.9-1.6c-3.9,8.7,1.1,17.8,6.9,25.2c-1-0.2-2.1-0.3-3.1-0.3
			c-13.8-0.4-25.6,11.3-33.6,21.4c-2.3,2.9-4.2,6.1-5.6,9.5c0-4.7,0-9.5,0.3-14.2c0.6-10.3,4.3-20.1,4.9-30.4c0.1-2-11.9,2-12.5,2.3
			c-2.7,1.1-5.5,2.3-8,3.9c-1,0.6-2.7,1.6-2.8,2.9c-0.6,9.9-4.1,19.4-4.8,29.4c-0.2,3.4-0.4,6.7-0.4,10.1
			c-7.4-0.3-14.9,0.2-22.1,0.8c-2.3,0.2-4.6,0.4-6.9,0.6c-1.6-8.7-3.5-17.4-6.4-25.7c-2.9-8.3-7.2-16.8-14.2-22.3
			c-4.8-3.7-12.3-5.1-17.4-1.1c-4.8,3.8-3.7,10.6,0.8,14.1c0.5,0.4,0.9,0.7,1.3,1.1c0,0.1,0.1,0.1,0.1,0.2c0.8,0.9,1.4,1.9,2.1,2.9
			c0.2,0.4,0.6,1.1,0.8,1.4c0.4,0.8,0.8,1.6,1.1,2.4c0.8,1.9,1.6,3.9,2.3,5.8c0.6,1.6,1.1,3.2,1.5,4.9c-4,2-6.3,6.4-5.6,11.1
			c0.2,1,0.5,2,0.9,2.9c-0.5-0.2-1-0.2-1.5-0.1c-1.6,0.3-2.8,1.8-2.5,3.5c0.3,1.6,1.8,2.8,3.5,2.5c1.5-0.2,2.6-1.6,2.5-3
			c1.5,1.5,3.5,2.6,5.7,3c-4.9,0.7-9.9,1.5-14.8,2.1c-5.7,0.8-8.6,5.8-6.1,11c1.4,3,4.1,5.5,7.2,7v93.7c0,1,5.5,0.9,5.5-0.1v-92
			c0.9,0.1,1.8,0.1,2.7,0c3.3-0.4,6.6-0.9,9.9-1.4c0.1,0.5,0.1,0.9,0.2,1.4c0.6,5.4,0.9,10.9,0.8,16.4c0,1.3-0.1,2.6-0.1,3.8
			c0,0.3-0.2,2.6-0.2,2.7c-0.3,2.5-0.7,5.1-1.3,7.6c-1.4,6.2,3.9,11.2,9.5,12.7c5.2,1.4,13.2,0,14.6-6.2c3.2-13.8,2.5-27.9,0.6-41.8
			c3.1-0.4,6.2-0.7,9.3-1c4.2-0.4,8.4-0.7,12.6-0.8c0.2,0,0.5,0,0.7,0v62.6c0,0.7,2.6,1.6,2.6,0.8v-63.5c0.3,0,0.6,0,0.9,0
			c0.1,2.3,0.2,4.6,0.4,7c0.6,12.2,1,24.4,2.1,36.6c1.2,12.2,3,24.4,5.1,36.5c0.4,2.2,10.9-1.7,12.4-2.2c1,3.3,4.3,5.5,7.8,4.9
			c3.8-0.6,6.4-4.2,5.8-8c-0.3-1.9-1.4-3.5-2.9-4.6c-2-11.5-3.7-23-4.9-34.6c-0.7-6.5-1.1-13.1-1.4-19.6c2.6,4.6,6.1,8.7,10.3,12.2
			c8.7,7.4,20,12.6,31.6,14.5c0,0.4,0.1,0.7,0.1,1.1c0.1,0.7,0.3,1.4,0.6,2.1c-0.9,1.3-1.3,3-1,4.7c0.6,3.5,3.9,5.9,7.5,5.3
			c2.1-0.3,3.8-1.7,4.7-3.4c0.1,0,0.3,0,0.4,0c5.2-0.9,8.8-5.3,8.8-10.4c1.6-0.4,3.2-0.8,4.7-1.3v23.2c0,0.5,2.8,0.4,2.8-0.2v-24
			c0.7-0.3,1.5-0.6,2.2-0.9v58.6c0,3.4,7.8,0.6,7.8-2.4v-60.2c2.4-1.4,4.6-3,6.8-4.7c3.9-3.2,7.5-7,10.2-11.2c2.5,0.1,5,0.3,7.4,0.5
			c0.9,0.1,1.7,0.1,2.6,0.2c-0.8,15.6-4.6,31.5-9.2,45.6c-1.7,5.2,0.9,9.8,6.7,9.7c3.5-0.1,7.5-1.7,10.5-4.3v26.6
			c0,0.3,5.5,0,5.5-0.6V537c3.8-12.5,6.7-25.2,8.1-38c6.5,0.9,13.1,1.7,19.6,2.4c11.7,1.3,23.5,2.2,35.3,2.1
			c9.6-0.1,22.7-0.8,28.4-9.9C1334.5,489.4,1326.1,484,1323.4,482.6z M1216.7,447.6C1216.3,447.4,1216.4,447.4,1216.7,447.6
			L1216.7,447.6z M1197,479.9c-10.9-0.2-21.8,0.4-32.7,2.5c-5.7,1.1-2.4,7,0.2,9.4c4,3.8,10.5,6.9,16.2,5.9c0.8-0.1,1.6-0.3,2.3-0.4
			c-3.9,2.9-8.2,5.2-12.6,7.1c-5.1,2.1-9.8,3.2-15,3.6c-1.3,0.1-2.6,0.1-3.9,0.1c0,0-0.1,0-0.1,0c-0.1,0-0.2,0-0.4,0
			c-0.6,0-1.2-0.1-1.7-0.2c-0.3-0.1-0.5-0.2-0.7-0.3c0,0-0.1,0-0.1-0.1c-0.5-0.4-1-0.9-1.5-1.3c-0.1-0.1-0.1-0.1-0.2-0.1
			c-0.1-0.1-0.1-0.1-0.2-0.2c-0.5-0.5-0.9-1-1.3-1.4c-1-1.1-1.9-2.4-2.7-3.6c-2.3-3.4-4.3-9.3-5.1-14.1c-1.8-10.7,1.3-22,7.3-31
			c3.5-5.2,8.2-9.9,13-13.9c3.8-3.2,8.3-6.1,13.2-7.2c2.3,2.4,4.6,4.7,7,7c2,1.9,4.2,3.8,6.3,5.7c1.1,1,2.2,2,3.3,3
			c0.1,0.1,0.8,0.8,1,1c0.6,0.6,1.2,1.2,1.8,1.8c4.1,4.3,7.3,8.6,8.5,14.5C1199.7,471.6,1198.6,476,1197,479.9z M1241.3,579.5
			c-0.2-0.4-0.6-0.5-1.1-0.5c0-0.2-0.1-0.3-0.3-0.4c0,0,0,0,0,0c0.6-0.6-0.2-0.9-0.7-0.9c-1.1,0-2.3,0.3-3.3,0.8
			c-0.2,0.1-0.6,0.3-0.9,0.5c-0.8,0.3-1.9,0.7-1.9,1.5c0,0.3,0.2,0.5,0.3,0.7c-0.3,0.5-0.3,1.1,0.2,1.7c0.4,0.6,1.1,0.6,1.8,0.5
			c0.4-0.1,0.9-0.2,1.3-0.3c0.1,0,0.2,0.1,0.3,0.1c0.3,0.1,0.7,0.1,1,0c0.7-0.1,1.4-0.3,2.1-0.5c0.4-0.2,1.9-0.7,1.7-1.4
			C1241.8,580.7,1241.6,580.1,1241.3,579.5z M1160.9,522.7c-0.2-1-1.1-1.7-2.2-1.5c-1,0.2-1.7,1.1-1.5,2.2c0.2,1,1.1,1.7,2.2,1.5
			C1160.4,524.7,1161.1,523.7,1160.9,522.7z M1180.4,526.7c-1.6,0.3-2.8,1.8-2.5,3.5c0.3,1.6,1.8,2.8,3.5,2.5
			c1.6-0.3,2.8-1.8,2.5-3.5C1183.6,527.5,1182.1,526.4,1180.4,526.7z M962.8,507c-1,0.2-1.7,1.2-1.6,2.2c0.2,1,1.1,1.7,2.2,1.6
			c1-0.2,1.7-1.2,1.6-2.2C964.8,507.5,963.8,506.8,962.8,507z M973.7,503c-1.6,0.3-2.8,1.8-2.5,3.5c0.3,1.6,1.8,2.8,3.5,2.5
			c1.6-0.3,2.8-1.8,2.5-3.5S975.3,502.7,973.7,503z M1010.7,463.2c-6.1-4.3-13.5-6.8-19.7-10.8c-6.8-4.4-12.6-10.6-17.7-16.8
			c-4.3-5.1-8.3-10.6-11.8-16.3c-1.8-2.9-3.5-5.8-5.2-8.7c-0.4-0.6-0.7-1.3-1.1-1.9c-0.1-0.2-0.2-0.3-0.2-0.4
			c-0.2-0.3-0.3-0.6-0.5-0.9c-0.2-0.4-0.4-0.8-0.6-1.2c-0.1-0.2-0.1-0.4-0.2-0.5c0.8-3.5-10.3-3.9-11.6-3.9c-3.9,0-7.9,0.4-11.7,1.5
			c-2.2,0.6-5.3,1.5-6.8,3.4c-1,1.3-0.1,2.5,0.5,3.7c1.2,2.3,2.5,4.6,3.8,6.8c2.3,3.9,4.6,7.8,7.1,11.5c4.7,6.8,9.7,13.3,15.5,19.2
			c5.9,6,12.6,10.7,20,14.6c3.3,1.7,6.7,3.4,10,5.2c0.1,0,1,0.6,1.2,0.7c0.4,0.3,0.8,0.6,1.2,0.9c1.1,0.9,2.1,2,2.9,3.1
			c0.7,1,0.6,0.8,1,2.1c0.3,0.9,0.3,1.9,0.3,2.9c0,0.1-0.2,1-0.1,0.9c-0.1,0.3-0.3,0.6-0.5,0.9c-0.3,0.5-0.6,0.9-1,1.2c0,0,0,0,0,0
			c-0.2,0.2-0.5,0.3-0.7,0.5c-0.1,0-0.2,0-0.3,0c-0.1,0-0.1,0-0.2,0c-0.3,0-0.7,0.1-1,0.1c-0.4,0-0.8,0-1.3,0c-0.3,0-0.8,0-1.3,0
			c-0.7,0-1.3-0.1-2-0.2c-7-0.6-14-1.9-21-2.5c-1.5-0.1-3-0.2-4.5-0.3c-2.4-9.7-5.5-19.2-9.6-28.3c-2.6-6-8.4-13.1-15.2-14.5
			c-6.9-1.5-5.9,6.5-4.1,10.4c0.8,1.7,1.5,3.5,2.2,5.2c0.4,0.9,0.7,1.8,1,2.7c0.1,0.2,0.2,0.7,0.4,1.1c1.2,3.4,2.2,6.9,3.1,10.4
			c1,3.7,1.8,7.5,2.5,11.3c0.2,0.8,0.3,1.6,0.4,2.5c-5,0.7-10,1.7-14.8,3.2c-2.4,0.7-11.2,4.2-4.9,6.9c6,2.6,14.8,1.8,20.9-0.1
			c0,0,0.1,0,0.1,0c1.5,14.3,1.3,28.9-0.2,43.2c-0.3,3,1.7,6.8,3.2,9.1c2.1,3.3,4.8,6.4,8,8.6c2.1,1.5,5,3.1,7.8,2.7
			c2.6-0.4,3.1-2.5,3.3-4.7c1.5-14,1.7-28.3,0.4-42.4c1.4,0.5,3,0.6,4.6,0.4c4.8-0.8,8.2-5.1,8-9.9c1,0.9,2.4,1.4,3.8,1.2
			c2.5-0.4,4.1-2.7,3.7-5.2c-0.1-0.4-0.2-0.7-0.3-1.1c8-0.1,16-1,23.7-3.1c6.6-1.7,14.8-5,16.3-12.5
			C1018.6,470.5,1014.3,465.7,1010.7,463.2z M953.4,406.7c0.1-0.1,0.2-0.3,0.3-0.4C953.6,406.4,953.5,406.6,953.4,406.7z
			 M953.8,405.8C953.8,405.6,953.8,405.6,953.8,405.8L953.8,405.8z M969.2,491.7c-0.2-0.3-0.4-0.6-0.6-0.9c0.3,0,0.6,0,1,0
			C969.4,491.1,969.3,491.4,969.2,491.7z"/>
	</g>
	<g>
		<path d="M829.6,592.2C872.9,573,918,558.1,964,547.1c49.4-11.8,100.1-18.9,151-19c60.3-0.2,122.6,10.3,175.1,41.6
			c4.4,2.6,7.9-0.1,7.1-5c-0.9-5.8-5.1-11.5-10.1-14.5c-85-50.7-191.7-50.5-286.4-34.5c-63.6,10.8-126.3,29.8-185.3,56
			C808.2,574.9,821.3,596,829.6,592.2L829.6,592.2z"/>
	</g>
</g>
</svg>
